<svg id="SvgjsSvg1006" width="1433.296875" height="1114.625" xmlns="http://www.w3.org/2000/svg" version="1.1" xmlns:xlink="http://www.w3.org/1999/xlink" xmlns:svgjs="http://svgjs.com/svgjs"><defs id="SvgjsDefs1007"><marker id="SvgjsMarker1010" markerWidth="16" markerHeight="12" refX="16" refY="6" viewBox="0 0 16 12" orient="auto" markerUnits="userSpaceOnUse" stroke-dasharray="0,0"><path id="SvgjsPath1011" d="M0,2 L14,6 L0,11 L0,2" fill="#323232" stroke="#323232" stroke-width="2"></path></marker><radialGradient id="SvgjsRadialGradient1028" r="0.75"><stop id="SvgjsStop1029" stop-opacity="1" stop-color="#ffffff" offset="0"></stop><stop id="SvgjsStop1030" stop-opacity="1" stop-color="#ffe6cc" offset="1"></stop></radialGradient><marker id="SvgjsMarker1043" markerWidth="16" markerHeight="12" refX="16" refY="6" viewBox="0 0 16 12" orient="auto" markerUnits="userSpaceOnUse" stroke-dasharray="0,0"><path id="SvgjsPath1044" d="M0,2 L14,6 L0,11 L0,2" fill="#323232" stroke="#323232" stroke-width="2"></path></marker><pattern id="SvgjsPattern1051" x="0" y="0" width="223.5" height="67" patternUnits="userSpaceOnUse"><image id="SvgjsImage1052" xlink:href="https://cdn.processon.com/5d779105e4b01080c73b629a?e=1568120597&amp;token=trhI0BY8QfVrIGn9nENop6JAc6l5nZuxhjQ62UfM:zDL24CdDTXeV8WdEiCzDae3lSA4=" width="223.5" height="67" preserveAspectRatio="none" crossOrigin="anonymous" x="0" y="0"></image></pattern><marker id="SvgjsMarker1055" markerWidth="16" markerHeight="12" refX="0" refY="6" viewBox="0 0 16 12" orient="auto" markerUnits="userSpaceOnUse" stroke-dasharray="0,0"><path id="SvgjsPath1056" d="M15,1.5 L2,6 L15,10.5" fill="#323232" stroke="#323232" stroke-width="2"></path></marker><marker id="SvgjsMarker1057" markerWidth="16" markerHeight="12" refX="16" refY="6" viewBox="0 0 16 12" orient="auto" markerUnits="userSpaceOnUse" stroke-dasharray="0,0"><path id="SvgjsPath1058" d="M0,2 L14,6 L0,11 L0,2" fill="#323232" stroke="#323232" stroke-width="2"></path></marker><linearGradient id="SvgjsLinearGradient1061" x1="1" y1="0" x2="0" y2="1"><stop id="SvgjsStop1062" stop-opacity="1" stop-color="#ffffff" offset="0"></stop><stop id="SvgjsStop1063" stop-opacity="1" stop-color="#b3ff66" offset="1"></stop></linearGradient><marker id="SvgjsMarker1110" markerWidth="16" markerHeight="12" refX="16" refY="6" viewBox="0 0 16 12" orient="auto" markerUnits="userSpaceOnUse" stroke-dasharray="0,0"><path id="SvgjsPath1111" d="M0,2 L14,6 L0,11 L0,2" fill="#323232" stroke="#323232" stroke-width="2"></path></marker><marker id="SvgjsMarker1114" markerWidth="16" markerHeight="12" refX="16" refY="6" viewBox="0 0 16 12" orient="auto" markerUnits="userSpaceOnUse" stroke-dasharray="0,0"><path id="SvgjsPath1115" d="M0,2 L14,6 L0,11 L0,2" fill="#323232" stroke="#323232" stroke-width="2"></path></marker><marker id="SvgjsMarker1124" markerWidth="16" markerHeight="12" refX="16" refY="6" viewBox="0 0 16 12" orient="auto" markerUnits="userSpaceOnUse" stroke-dasharray="0,0"><path id="SvgjsPath1125" d="M0,2 L14,6 L0,11 L0,2" fill="#323232" stroke="#323232" stroke-width="2"></path></marker><marker id="SvgjsMarker1144" markerWidth="16" markerHeight="12" refX="16" refY="6" viewBox="0 0 16 12" orient="auto" markerUnits="userSpaceOnUse" stroke-dasharray="0,0"><path id="SvgjsPath1145" d="M0,2 L14,6 L0,11 L0,2" fill="#323232" stroke="#323232" stroke-width="2"></path></marker><marker id="SvgjsMarker1202" markerWidth="16" markerHeight="12" refX="16" refY="6" viewBox="0 0 16 12" orient="auto" markerUnits="userSpaceOnUse" stroke-dasharray="0,0"><path id="SvgjsPath1203" d="M0,2 L14,6 L0,11 L0,2" fill="#323232" stroke="#323232" stroke-width="2"></path></marker><marker id="SvgjsMarker1206" markerWidth="16" markerHeight="12" refX="16" refY="6" viewBox="0 0 16 12" orient="auto" markerUnits="userSpaceOnUse" stroke-dasharray="0,0"><path id="SvgjsPath1207" d="M0,2 L14,6 L0,11 L0,2" fill="#323232" stroke="#323232" stroke-width="2"></path></marker><marker id="SvgjsMarker1210" markerWidth="16" markerHeight="12" refX="16" refY="6" viewBox="0 0 16 12" orient="auto" markerUnits="userSpaceOnUse" stroke-dasharray="0,0"><path id="SvgjsPath1211" d="M0,2 L14,6 L0,11 L0,2" fill="#323232" stroke="#323232" stroke-width="2"></path></marker><marker id="SvgjsMarker1214" markerWidth="16" markerHeight="12" refX="16" refY="6" viewBox="0 0 16 12" orient="auto" markerUnits="userSpaceOnUse" stroke-dasharray="0,0"><path id="SvgjsPath1215" d="M0,2 L14,6 L0,11 L0,2" fill="#323232" stroke="#323232" stroke-width="2"></path></marker><linearGradient id="SvgjsLinearGradient1222" x1="1" y1="0" x2="0" y2="1"><stop id="SvgjsStop1223" stop-opacity="1" stop-color="#ffffff" offset="0"></stop><stop id="SvgjsStop1224" stop-opacity="1" stop-color="#99ccff" offset="1"></stop></linearGradient><marker id="SvgjsMarker1233" markerWidth="16" markerHeight="12" refX="16" refY="6" viewBox="0 0 16 12" orient="auto" markerUnits="userSpaceOnUse" stroke-dasharray="0,0"><path id="SvgjsPath1234" d="M0,2 L14,6 L0,11 L0,2" fill="#323232" stroke="#323232" stroke-width="2"></path></marker><marker id="SvgjsMarker1243" markerWidth="16" markerHeight="12" refX="16" refY="6" viewBox="0 0 16 12" orient="auto" markerUnits="userSpaceOnUse" stroke-dasharray="0,0"><path id="SvgjsPath1244" d="M0,2 L14,6 L0,11 L0,2" fill="#323232" stroke="#323232" stroke-width="2"></path></marker><marker id="SvgjsMarker1247" markerWidth="16" markerHeight="12" refX="16" refY="6" viewBox="0 0 16 12" orient="auto" markerUnits="userSpaceOnUse" stroke-dasharray="0,0"><path id="SvgjsPath1248" d="M0,2 L14,6 L0,11 L0,2" fill="#323232" stroke="#323232" stroke-width="2"></path></marker><marker id="SvgjsMarker1255" markerWidth="16" markerHeight="12" refX="16" refY="6" viewBox="0 0 16 12" orient="auto" markerUnits="userSpaceOnUse" stroke-dasharray="0,0"><path id="SvgjsPath1256" d="M0,2 L14,6 L0,11 L0,2" fill="#323232" stroke="#323232" stroke-width="2"></path></marker><linearGradient id="SvgjsLinearGradient1259" x1="1" y1="0" x2="0" y2="1"><stop id="SvgjsStop1260" stop-opacity="1" stop-color="#ffffff" offset="0"></stop><stop id="SvgjsStop1261" stop-opacity="1" stop-color="#99ccff" offset="1"></stop></linearGradient><marker id="SvgjsMarker1270" markerWidth="16" markerHeight="12" refX="16" refY="6" viewBox="0 0 16 12" orient="auto" markerUnits="userSpaceOnUse" stroke-dasharray="0,0"><path id="SvgjsPath1271" d="M0,2 L14,6 L0,11 L0,2" fill="#323232" stroke="#323232" stroke-width="2"></path></marker><pattern id="SvgjsPattern1278" x="0" y="0" width="223.5" height="67" patternUnits="userSpaceOnUse"><image id="SvgjsImage1279" xlink:href="https://cdn.processon.com/5d779105e4b01080c73b629a?e=1568120597&amp;token=trhI0BY8QfVrIGn9nENop6JAc6l5nZuxhjQ62UfM:zDL24CdDTXeV8WdEiCzDae3lSA4=" width="223.5" height="67" preserveAspectRatio="none" crossOrigin="anonymous" x="0" y="0"></image></pattern><marker id="SvgjsMarker1310" markerWidth="16" markerHeight="12" refX="16" refY="6" viewBox="0 0 16 12" orient="auto" markerUnits="userSpaceOnUse" stroke-dasharray="0,0"><path id="SvgjsPath1311" d="M0,2 L14,6 L0,11 L0,2" fill="#323232" stroke="#323232" stroke-width="2"></path></marker><marker id="SvgjsMarker1314" markerWidth="16" markerHeight="12" refX="16" refY="6" viewBox="0 0 16 12" orient="auto" markerUnits="userSpaceOnUse" stroke-dasharray="0,0"><path id="SvgjsPath1315" d="M0,2 L14,6 L0,11 L0,2" fill="#323232" stroke="#323232" stroke-width="2"></path></marker><marker id="SvgjsMarker1318" markerWidth="16" markerHeight="12" refX="16" refY="6" viewBox="0 0 16 12" orient="auto" markerUnits="userSpaceOnUse" stroke-dasharray="0,0"><path id="SvgjsPath1319" d="M0,2 L14,6 L0,11 L0,2" fill="#323232" stroke="#323232" stroke-width="2"></path></marker><marker id="SvgjsMarker1326" markerWidth="16" markerHeight="12" refX="16" refY="6" viewBox="0 0 16 12" orient="auto" markerUnits="userSpaceOnUse" stroke-dasharray="0,0"><path id="SvgjsPath1327" d="M0,2 L14,6 L0,11 L0,2" fill="#323232" stroke="#323232" stroke-width="2"></path></marker><marker id="SvgjsMarker1342" markerWidth="16" markerHeight="12" refX="16" refY="6" viewBox="0 0 16 12" orient="auto" markerUnits="userSpaceOnUse" stroke-dasharray="0,0"><path id="SvgjsPath1343" d="M0,2 L14,6 L0,11 L0,2" fill="#323232" stroke="#323232" stroke-width="2"></path></marker><marker id="SvgjsMarker1350" markerWidth="16" markerHeight="12" refX="16" refY="6" viewBox="0 0 16 12" orient="auto" markerUnits="userSpaceOnUse" stroke-dasharray="0,0"><path id="SvgjsPath1351" d="M0,2 L14,6 L0,11 L0,2" fill="#323232" stroke="#323232" stroke-width="2"></path></marker><marker id="SvgjsMarker1358" markerWidth="16" markerHeight="12" refX="16" refY="6" viewBox="0 0 16 12" orient="auto" markerUnits="userSpaceOnUse" stroke-dasharray="0,0"><path id="SvgjsPath1359" d="M0,2 L14,6 L0,11 L0,2" fill="#323232" stroke="#323232" stroke-width="2"></path></marker></defs><g id="SvgjsG1008"><path id="SvgjsPath1009" d="M783.796875 110.25L783.796875 188.5L783.796875 188.5L783.796875 266.75" stroke="#323232" stroke-width="2" fill="none" marker-end="url(#SvgjsMarker1010)"></path><rect id="SvgjsRect1012" width="58" height="16" x="754.796875" y="180.5" fill="#ffffff"></rect><text id="SvgjsText1013" font-family="微软雅黑" text-anchor="middle" font-size="13px" width="58px" fill="#323232" font-weight="400" align="top" lineHeight="16px" anchor="middle" family="微软雅黑" size="13px" weight="400" font-style="" opacity="1" y="178.875" transform="rotate(0)"><tspan id="SvgjsTspan1014" dy="16" x="783.796875"><tspan id="SvgjsTspan1015" style="text-decoration:;">subscribe</tspan></tspan></text></g><g id="SvgjsG1016" transform="translate(733.796875,520.25)"><path id="SvgjsPath1017" d="M 0 0L 100 0L 100 70L 0 70L 0 0ZM 16.666666666666668 0L 16.666666666666668 70M 83.33333333333333 0L 83.33333333333333 70" stroke="rgba(50,50,50,1)" stroke-width="2" fill-opacity="1" fill="#ffffff"></path><g id="SvgjsG1018"><text id="SvgjsText1019" font-family="微软雅黑" text-anchor="middle" font-size="13px" width="67px" fill="#323232" font-weight="400" align="middle" lineHeight="125%" anchor="middle" family="微软雅黑" size="13px" weight="400" font-style="" opacity="1" y="9.375" transform="rotate(0)"><tspan id="SvgjsTspan1020" dy="16" x="50.16666666666667"><tspan id="SvgjsTspan1021" style="text-decoration:;">Action </tspan></tspan><tspan id="SvgjsTspan1022" dy="16" x="50.16666666666667"><tspan id="SvgjsTspan1023" style="text-decoration:;">Pool</tspan></tspan><tspan id="SvgjsTspan1024" dy="16" x="50.16666666666667"><tspan id="SvgjsTspan1025" style="text-decoration:;">(Kafka)</tspan></tspan></text></g></g><g id="SvgjsG1026" transform="translate(160.796875,566.875)"><path id="SvgjsPath1027" d="M 24.075 0L 145.04166666666666 0C 164.7159090909091 0 164.7159090909091 92.75 145.04166666666666 92.75L 24.075 92.75C -8.025 92.75 -8.025 0 24.075 0ZM 145.04166666666666 0C 125.71875 0 125.71875 92.75 145.04166666666666 92.75C 125.71875 92.75 125.71875 0 145.04166666666666 0" stroke="rgba(50,50,50,1)" stroke-width="2" fill="url(#SvgjsRadialGradient1028)"></path><g id="SvgjsG1031"><text id="SvgjsText1032" font-family="微软雅黑" text-anchor="middle" font-size="13px" width="129px" fill="#323232" font-weight="400" align="middle" lineHeight="125%" anchor="middle" family="微软雅黑" size="13px" weight="400" font-style="" opacity="1" y="36.75" transform="rotate(0)"><tspan id="SvgjsTspan1033" dy="16" x="64.5"><tspan id="SvgjsTspan1034" style="text-decoration:;">Site Map</tspan></tspan></text></g></g><g id="SvgjsG1035" transform="translate(701.296875,266.75)"><path id="SvgjsPath1036" d="M 0 4Q 0 0 4 0L 161 0Q 165 0 165 4L 165 118.5Q 165 122.5 161 122.5L 4 122.5Q 0 122.5 0 118.5Z" stroke="rgba(0,255,255,1)" stroke-width="2" fill-opacity="1" fill="#ffffff"></path><g id="SvgjsG1037"><text id="SvgjsText1038" font-family="微软雅黑" text-anchor="middle" font-size="13px" width="145px" fill="#323232" font-weight="400" align="middle" lineHeight="125%" anchor="middle" family="微软雅黑" size="13px" weight="400" font-style="" opacity="1" y="51.625" transform="rotate(0)"><tspan id="SvgjsTspan1039" dy="16" x="82.5"><tspan id="SvgjsTspan1040" style="text-decoration:;">Action Engine</tspan></tspan></text></g></g><g id="SvgjsG1041"><path id="SvgjsPath1042" d="M783.796875 389.25L783.796875 454.75L783.796875 454.75L783.796875 520.25" stroke="#323232" stroke-width="2" fill="none" marker-end="url(#SvgjsMarker1043)"></path><rect id="SvgjsRect1045" width="49" height="16" x="759.296875" y="446.75" fill="#ffffff"></rect><text id="SvgjsText1046" font-family="微软雅黑" text-anchor="middle" font-size="13px" width="49px" fill="#000000" font-weight="400" align="top" lineHeight="16px" anchor="middle" family="微软雅黑" size="13px" weight="400" font-style="" opacity="1" y="445.125" transform="rotate(0)"><tspan id="SvgjsTspan1047" dy="16" x="783.796875"><tspan id="SvgjsTspan1048" style="text-decoration:;">produce</tspan></tspan></text></g><g id="SvgjsG1049" transform="translate(672.046875,43.25)"><path id="SvgjsPath1050" d="M 0 0L 223.5 0L 223.5 67L 0 67Z" stroke="none" fill="url(#SvgjsPattern1051)"></path></g><g id="SvgjsG1053"><path id="SvgjsPath1054" d="M701.296875 328L630.296875 328L630.296875 327.78125L559.296875 327.78125" stroke="#323232" stroke-width="2" fill="none" marker-start="url(#SvgjsMarker1055)" marker-end="url(#SvgjsMarker1057)"></path></g><g id="SvgjsG1059" transform="translate(413.296875,292.25)"><path id="SvgjsPath1060" d="M 0 4Q 0 0 4 0L 142 0Q 146 0 146 4L 146 67.0625Q 146 71.0625 142 71.0625L 4 71.0625Q 0 71.0625 0 67.0625Z" stroke="rgba(0,0,0,1)" stroke-width="2" fill="url(#SvgjsLinearGradient1061)"></path><g id="SvgjsG1064"><text id="SvgjsText1065" font-family="微软雅黑" text-anchor="middle" font-size="13px" width="126px" fill="#323232" font-weight="400" align="middle" lineHeight="125%" anchor="middle" family="微软雅黑" size="13px" weight="400" font-style="" opacity="1" y="25.90625" transform="rotate(0)"><tspan id="SvgjsTspan1066" dy="16" x="73"><tspan id="SvgjsTspan1067" style="text-decoration:;">Flow Parser</tspan></tspan></text></g></g><g id="SvgjsG1068" transform="translate(421.296875,25)"><path id="SvgjsPath1069" d="M 18 0Q 9 0 9 9L 9 42.75Q 9 51.75 0 51.75Q 9 51.75 9 60.75L 9 94.5Q 9 103.5 18 103.5" stroke="rgba(204,0,0,1)" stroke-width="2" fill="none"></path><path id="SvgjsPath1070" d="M 161 103.5Q 170 103.5 170 94.5L 170 60.75Q 170 51.75 179 51.75Q 170 51.75 170 42.75L 170 9Q 170 0 161 0" stroke="rgba(204,0,0,1)" stroke-width="2" fill="none"></path><path id="SvgjsPath1071" d="M 0 0L 179 0L 179 103.5L 0 103.5Z" stroke="none" fill="none"></path><g id="SvgjsG1072"><text id="SvgjsText1073" font-family="微软雅黑" text-anchor="middle" font-size="13px" width="159px" fill="#323232" font-weight="400" align="middle" lineHeight="125%" anchor="middle" family="微软雅黑" size="13px" weight="400" font-style="" opacity="1" y="10.125" transform="rotate(0)"><tspan id="SvgjsTspan1074" dy="16" x="89.5"><tspan id="SvgjsTspan1075" style="text-decoration:;">Flow_Script_1</tspan></tspan><tspan id="SvgjsTspan1076" dy="16" x="89.5"><tspan id="SvgjsTspan1077" style="text-decoration:;">Flow_Script_2</tspan></tspan><tspan id="SvgjsTspan1078" dy="16" x="89.5"><tspan id="SvgjsTspan1079" style="text-decoration:;">Flow_Script_3</tspan></tspan><tspan id="SvgjsTspan1080" dy="16" x="89.5"><tspan id="SvgjsTspan1081" style="text-decoration:;">Flow_Script_4</tspan></tspan><tspan id="SvgjsTspan1082" dy="16" x="89.5"><tspan id="SvgjsTspan1083" style="text-decoration:;">Flow_Script_5</tspan></tspan></text></g></g><g id="SvgjsG1084" transform="translate(960.296875,520.6136363636364)"><path id="SvgjsPath1085" d="M 0 0L 100 0L 100 70L 0 70L 0 0ZM 16.666666666666668 0L 16.666666666666668 70M 83.33333333333333 0L 83.33333333333333 70" stroke="rgba(50,50,50,1)" stroke-width="2" fill-opacity="1" fill="#ffffff"></path><g id="SvgjsG1086"><text id="SvgjsText1087" font-family="微软雅黑" text-anchor="middle" font-size="13px" width="67px" fill="#323232" font-weight="400" align="middle" lineHeight="125%" anchor="middle" family="微软雅黑" size="13px" weight="400" font-style="" opacity="1" y="17.375" transform="rotate(0)"><tspan id="SvgjsTspan1088" dy="16" x="50.16666666666667"><tspan id="SvgjsTspan1089" style="text-decoration:;">Agent Pool</tspan></tspan><tspan id="SvgjsTspan1090" dy="16" x="50.16666666666667"><tspan id="SvgjsTspan1091" style="text-decoration:;">(Kafka)</tspan></tspan></text></g></g><g id="SvgjsG1092" transform="translate(147.296875,187.75)"><path id="SvgjsPath1093" d="M 18 0Q 9 0 9 9L 9 36.25Q 9 45.25 0 45.25Q 9 45.25 9 54.25L 9 81.5Q 9 90.5 18 90.5" stroke="rgba(51,255,51,1)" stroke-width="2" fill="none"></path><path id="SvgjsPath1094" d="M 160 90.5Q 169 90.5 169 81.5L 169 54.25Q 169 45.25 178 45.25Q 169 45.25 169 36.25L 169 9Q 169 0 160 0" stroke="rgba(51,255,51,1)" stroke-width="2" fill="none"></path><path id="SvgjsPath1095" d="M 0 0L 178 0L 178 90.5L 0 90.5Z" stroke="none" fill="none"></path><g id="SvgjsG1096"><text id="SvgjsText1097" font-family="微软雅黑" text-anchor="middle" font-size="13px" width="158px" fill="#323232" font-weight="400" align="middle" lineHeight="125%" anchor="middle" family="微软雅黑" size="13px" weight="400" font-style="" opacity="1" y="3.625" transform="rotate(0)"><tspan id="SvgjsTspan1098" dy="16" x="89"><tspan id="SvgjsTspan1099" style="text-decoration:;">Pattern_1</tspan></tspan><tspan id="SvgjsTspan1100" dy="16" x="89"><tspan id="SvgjsTspan1101" style="text-decoration:;">Pattern_2</tspan></tspan><tspan id="SvgjsTspan1102" dy="16" x="89"><tspan id="SvgjsTspan1103" style="text-decoration:;">Pattern_3</tspan></tspan><tspan id="SvgjsTspan1104" dy="16" x="89"><tspan id="SvgjsTspan1105" style="text-decoration:;">...</tspan></tspan><tspan id="SvgjsTspan1106" dy="16" x="89"><tspan id="SvgjsTspan1107" style="text-decoration:;">Pattern_n</tspan></tspan></text></g></g><g id="SvgjsG1108"><path id="SvgjsPath1109" d="M325.296875 233C 377.0307870524439 233 361.5629629475561 327.78125 413.296875 327.78125" stroke-dasharray="3,3" stroke="#323232" stroke-width="2" fill="none" marker-end="url(#SvgjsMarker1110)"></path></g><g id="SvgjsG1112"><path id="SvgjsPath1113" d="M600.296875 76.75L636.171875 76.75L636.171875 76.75L672.046875 76.75" stroke-dasharray="3,3" stroke="#323232" stroke-width="2" fill="none" marker-end="url(#SvgjsMarker1114)"></path></g><g id="SvgjsG1116" transform="translate(413.296875,363.3125)"><path id="SvgjsPath1117" d="M 0 4Q 0 0 4 0L 142 0Q 146 0 146 4L 146 36.9375Q 146 40.9375 142 40.9375L 4 40.9375Q 0 40.9375 0 36.9375Z" stroke="rgba(50,50,50,1)" stroke-width="2" fill-opacity="1" fill="#ffffff"></path><g id="SvgjsG1118"><text id="SvgjsText1119" font-family="微软雅黑" text-anchor="middle" font-size="13px" width="126px" fill="#323232" font-weight="400" align="middle" lineHeight="125%" anchor="middle" family="微软雅黑" size="13px" weight="400" font-style="" opacity="1" y="10.84375" transform="rotate(0)"><tspan id="SvgjsTspan1120" dy="16" x="73"><tspan id="SvgjsTspan1121" style="text-decoration:;">Self Learning</tspan></tspan></text></g></g><g id="SvgjsG1122"><path id="SvgjsPath1123" d="M413.296875 383.78125C 290.99169254132414 383.78125 24.991692541324113 233 147.296875 233" stroke-dasharray="3,3" stroke="#323232" stroke-width="2" fill="none" marker-end="url(#SvgjsMarker1124)"></path></g><g id="SvgjsG1126" transform="translate(147.296875,404.25)"><path id="SvgjsPath1127" d="M 18 0Q 9 0 9 9L 9 36.25Q 9 45.25 0 45.25Q 9 45.25 9 54.25L 9 81.5Q 9 90.5 18 90.5" stroke="rgba(51,51,255,1)" stroke-width="2" fill="none"></path><path id="SvgjsPath1128" d="M 160 90.5Q 169 90.5 169 81.5L 169 54.25Q 169 45.25 178 45.25Q 169 45.25 169 36.25L 169 9Q 169 0 160 0" stroke="rgba(51,51,255,1)" stroke-width="2" fill="none"></path><path id="SvgjsPath1129" d="M 0 0L 178 0L 178 90.5L 0 90.5Z" stroke="none" fill="none"></path><g id="SvgjsG1130"><text id="SvgjsText1131" font-family="微软雅黑" text-anchor="middle" font-size="13px" width="158px" fill="#323232" font-weight="400" align="middle" lineHeight="125%" anchor="middle" family="微软雅黑" size="13px" weight="400" font-style="" opacity="1" y="3.625" transform="rotate(0)"><tspan id="SvgjsTspan1132" dy="16" x="89"><tspan id="SvgjsTspan1133" style="text-decoration:;">Model_1</tspan></tspan><tspan id="SvgjsTspan1134" dy="16" x="89"><tspan id="SvgjsTspan1135" style="text-decoration:;">Model_2</tspan></tspan><tspan id="SvgjsTspan1136" dy="16" x="89"><tspan id="SvgjsTspan1137" style="text-decoration:;">Model_3</tspan></tspan><tspan id="SvgjsTspan1138" dy="16" x="89"><tspan id="SvgjsTspan1139" style="text-decoration:;">...</tspan></tspan><tspan id="SvgjsTspan1140" dy="16" x="89"><tspan id="SvgjsTspan1141" style="text-decoration:;">Model_n</tspan></tspan></text></g></g><g id="SvgjsG1142"><path id="SvgjsPath1143" d="M325.296875 449.5C 385.37609483722827 449.5 353.21765516277173 327.78125 413.296875 327.78125" stroke-dasharray="3,3" stroke="#323232" stroke-width="2" fill="none" marker-end="url(#SvgjsMarker1144)"></path></g><g id="SvgjsG1146" transform="translate(413.296875,259.25)"><path id="SvgjsPath1147" d="M 0 4Q 0 0 4 0L 142 0Q 146 0 146 4L 146 29Q 146 33 142 33L 4 33Q 0 33 0 29Z" stroke="rgba(50,50,50,1)" stroke-width="2" fill-opacity="1" fill="#ffffff"></path><g id="SvgjsG1148"><text id="SvgjsText1149" font-family="微软雅黑" text-anchor="middle" font-size="13px" width="126px" fill="#323232" font-weight="400" align="middle" lineHeight="125%" anchor="middle" family="微软雅黑" size="13px" weight="400" font-style="" opacity="1" y="6.875" transform="rotate(0)"><tspan id="SvgjsTspan1150" dy="16" x="73"><tspan id="SvgjsTspan1151" style="text-decoration:;">Deck</tspan></tspan></text></g></g><g id="SvgjsG1152" transform="translate(413.296875,404.25)"><path id="SvgjsPath1153" d="M 0 4Q 0 0 4 0L 142 0Q 146 0 146 4L 146 26Q 146 30 142 30L 4 30Q 0 30 0 26Z" stroke="rgba(50,50,50,1)" stroke-width="2" fill-opacity="1" fill="#ffffff"></path><g id="SvgjsG1154"><text id="SvgjsText1155" font-family="微软雅黑" text-anchor="middle" font-size="13px" width="126px" fill="#323232" font-weight="400" align="middle" lineHeight="125%" anchor="middle" family="微软雅黑" size="13px" weight="400" font-style="" opacity="1" y="5.375" transform="rotate(0)"><tspan id="SvgjsTspan1156" dy="16" x="73"><tspan id="SvgjsTspan1157" style="text-decoration:;">API</tspan></tspan></text></g></g><g id="SvgjsG1158" transform="translate(1146.296875,665.25)"><path id="SvgjsPath1159" d="M 0 35C 0 -11.666666666666666 70 -11.666666666666666 70 35C 70 81.66666666666667 0 81.66666666666667 0 35Z" stroke="rgba(50,50,50,1)" stroke-width="2" fill-opacity="1" fill="#ffffff"></path><g id="SvgjsG1160"><text id="SvgjsText1161" font-family="微软雅黑" text-anchor="middle" font-size="13px" width="50px" fill="#323232" font-weight="400" align="middle" lineHeight="125%" anchor="middle" family="微软雅黑" size="13px" weight="400" font-style="" opacity="1" y="25.375" transform="rotate(0)"><tspan id="SvgjsTspan1162" dy="16" x="35"><tspan id="SvgjsTspan1163" style="text-decoration:;">Agent</tspan></tspan></text></g></g><g id="SvgjsG1164" transform="translate(1208.296875,628.25)"><path id="SvgjsPath1165" d="M 0 35C 0 -11.666666666666666 70 -11.666666666666666 70 35C 70 81.66666666666667 0 81.66666666666667 0 35Z" stroke="rgba(50,50,50,1)" stroke-width="2" fill-opacity="1" fill="#ffffff"></path><g id="SvgjsG1166"><text id="SvgjsText1167" font-family="微软雅黑" text-anchor="middle" font-size="13px" width="50px" fill="#323232" font-weight="400" align="middle" lineHeight="125%" anchor="middle" family="微软雅黑" size="13px" weight="400" font-style="" opacity="1" y="25.375" transform="rotate(0)"><tspan id="SvgjsTspan1168" dy="16" x="35"><tspan id="SvgjsTspan1169" style="text-decoration:;">Agent</tspan></tspan></text></g></g><g id="SvgjsG1170" transform="translate(1208.296875,698.25)"><path id="SvgjsPath1171" d="M 0 35C 0 -11.666666666666666 70 -11.666666666666666 70 35C 70 81.66666666666667 0 81.66666666666667 0 35Z" stroke="rgba(50,50,50,1)" stroke-width="2" fill-opacity="1" fill="#ffffff"></path><g id="SvgjsG1172"><text id="SvgjsText1173" font-family="微软雅黑" text-anchor="middle" font-size="13px" width="50px" fill="#323232" font-weight="400" align="middle" lineHeight="125%" anchor="middle" family="微软雅黑" size="13px" weight="400" font-style="" opacity="1" y="25.375" transform="rotate(0)"><tspan id="SvgjsTspan1174" dy="16" x="35"><tspan id="SvgjsTspan1175" style="text-decoration:;">Agent</tspan></tspan></text></g></g><g id="SvgjsG1176" transform="translate(1146.296875,732.25)"><path id="SvgjsPath1177" d="M 0 35C 0 -11.666666666666666 70 -11.666666666666666 70 35C 70 81.66666666666667 0 81.66666666666667 0 35Z" stroke="rgba(50,50,50,1)" stroke-width="2" fill-opacity="1" fill="#ffffff"></path><g id="SvgjsG1178"><text id="SvgjsText1179" font-family="微软雅黑" text-anchor="middle" font-size="13px" width="50px" fill="#323232" font-weight="400" align="middle" lineHeight="125%" anchor="middle" family="微软雅黑" size="13px" weight="400" font-style="" opacity="1" y="25.375" transform="rotate(0)"><tspan id="SvgjsTspan1180" dy="16" x="35"><tspan id="SvgjsTspan1181" style="text-decoration:;">Agent</tspan></tspan></text></g></g><g id="SvgjsG1182" transform="translate(1208.296875,768.25)"><path id="SvgjsPath1183" d="M 0 35C 0 -11.666666666666666 70 -11.666666666666666 70 35C 70 81.66666666666667 0 81.66666666666667 0 35Z" stroke="rgba(50,50,50,1)" stroke-width="2" fill-opacity="1" fill="#ffffff"></path><g id="SvgjsG1184"><text id="SvgjsText1185" font-family="微软雅黑" text-anchor="middle" font-size="13px" width="50px" fill="#323232" font-weight="400" align="middle" lineHeight="125%" anchor="middle" family="微软雅黑" size="13px" weight="400" font-style="" opacity="1" y="25.375" transform="rotate(0)"><tspan id="SvgjsTspan1186" dy="16" x="35"><tspan id="SvgjsTspan1187" style="text-decoration:;">Agent</tspan></tspan></text></g></g><g id="SvgjsG1188" transform="translate(1271.296875,735.25)"><path id="SvgjsPath1189" d="M 0 35C 0 -11.666666666666666 70 -11.666666666666666 70 35C 70 81.66666666666667 0 81.66666666666667 0 35Z" stroke="rgba(50,50,50,1)" stroke-width="2" fill-opacity="1" fill="#ffffff"></path><g id="SvgjsG1190"><text id="SvgjsText1191" font-family="微软雅黑" text-anchor="middle" font-size="13px" width="50px" fill="#323232" font-weight="400" align="middle" lineHeight="125%" anchor="middle" family="微软雅黑" size="13px" weight="400" font-style="" opacity="1" y="25.375" transform="rotate(0)"><tspan id="SvgjsTspan1192" dy="16" x="35"><tspan id="SvgjsTspan1193" style="text-decoration:;">Agent</tspan></tspan></text></g></g><g id="SvgjsG1194" transform="translate(1274.296875,662.25)"><path id="SvgjsPath1195" d="M 0 35C 0 -11.666666666666666 70 -11.666666666666666 70 35C 70 81.66666666666667 0 81.66666666666667 0 35Z" stroke="rgba(50,50,50,1)" stroke-width="2" fill-opacity="1" fill="#ffffff"></path><g id="SvgjsG1196"><text id="SvgjsText1197" font-family="微软雅黑" text-anchor="middle" font-size="13px" width="50px" fill="#323232" font-weight="400" align="middle" lineHeight="125%" anchor="middle" family="微软雅黑" size="13px" weight="400" font-style="" opacity="1" y="25.375" transform="rotate(0)"><tspan id="SvgjsTspan1198" dy="16" x="35"><tspan id="SvgjsTspan1199" style="text-decoration:;">Agent</tspan></tspan></text></g></g><g id="SvgjsG1200"><path id="SvgjsPath1201" d="M1060.296875 555.6136363636364C 1125.609822851286 555.6136363636364 1181.296875 599.9370521487141 1181.296875 665.25" stroke-dasharray="3,3" stroke="#323232" stroke-width="2" fill="none" marker-end="url(#SvgjsMarker1202)"></path></g><g id="SvgjsG1204"><path id="SvgjsPath1205" d="M1060.296875 555.6136363636364C 1151.6738527685588 555.6136363636364 1054.9198972314412 767.25 1146.296875 767.25" stroke-dasharray="3,3" stroke="#323232" stroke-width="2" fill="none" marker-end="url(#SvgjsMarker1206)"></path></g><g id="SvgjsG1208"><path id="SvgjsPath1209" d="M1060.296875 555.6136363636364C 1139.0522342561817 555.6136363636364 1243.296875 549.4946407438183 1243.296875 628.25" stroke-dasharray="3,3" stroke="#323232" stroke-width="2" fill="none" marker-end="url(#SvgjsMarker1210)"></path></g><g id="SvgjsG1212"><path id="SvgjsPath1213" d="M833.796875 555.25C 884.397084061078 555.25 909.696665938922 555.6136363636364 960.296875 555.6136363636364" stroke="#323232" stroke-width="2" fill="none" marker-end="url(#SvgjsMarker1214)"></path><rect id="SvgjsRect1216" width="38" height="16" x="878.046875" y="547.4318181818181" fill="#ffffff"></rect><text id="SvgjsText1217" font-family="微软雅黑" text-anchor="middle" font-size="13px" width="38px" fill="#323232" font-weight="400" align="top" lineHeight="16px" anchor="middle" family="微软雅黑" size="13px" weight="400" font-style="" opacity="1" y="545.8068181818181" transform="rotate(0)"><tspan id="SvgjsTspan1218" dy="16" x="897.046875"><tspan id="SvgjsTspan1219" style="text-decoration:;">create</tspan></tspan></text></g><g id="SvgjsG1220" transform="translate(748.796875,768.25)"><path id="SvgjsPath1221" d="M 0 35C 0 -11.666666666666666 70 -11.666666666666666 70 35C 70 81.66666666666667 0 81.66666666666667 0 35Z" stroke="rgba(0,0,0,1)" stroke-width="2" fill="url(#SvgjsLinearGradient1222)"></path><g id="SvgjsG1225"><text id="SvgjsText1226" font-family="微软雅黑" text-anchor="middle" font-size="13px" width="50px" fill="#323232" font-weight="400" align="middle" lineHeight="125%" anchor="middle" family="微软雅黑" size="13px" weight="400" font-style="" opacity="1" y="17.375" transform="rotate(0)"><tspan id="SvgjsTspan1227" dy="16" x="35"><tspan id="SvgjsTspan1228" style="text-decoration:;">Stateful </tspan></tspan><tspan id="SvgjsTspan1229" dy="16" x="35"><tspan id="SvgjsTspan1230" style="text-decoration:;">Agent</tspan></tspan></text></g></g><g id="SvgjsG1231"><path id="SvgjsPath1232" d="M1010.296875 590.6136363636364C 1010.296875 663.1590936206029 1010.2472882231405 699.4318154703062 1010.2472882231405 771.9772727272727" stroke="#323232" stroke-width="2" fill="none" marker-end="url(#SvgjsMarker1233)"></path></g><g id="SvgjsG1235" transform="translate(960.2472882231405,771.9772727272727)"><path id="SvgjsPath1236" d="M 14.7 0L 85.3 0L 100 35L 85.3 70L 14.7 70L 0 35L 14.7 0Z" stroke="rgba(0,0,204,1)" stroke-width="2" fill-opacity="1" fill="#ffffff"></path><g id="SvgjsG1237"><text id="SvgjsText1238" font-family="微软雅黑" text-anchor="middle" font-size="13px" width="80px" fill="#323232" font-weight="400" align="middle" lineHeight="125%" anchor="middle" family="微软雅黑" size="13px" weight="400" font-style="" opacity="1" y="25.375" transform="rotate(0)"><tspan id="SvgjsTspan1239" dy="16" x="50"><tspan id="SvgjsTspan1240" style="text-decoration:;">Elect</tspan></tspan></text></g></g><g id="SvgjsG1241"><path id="SvgjsPath1242" d="M960.2472882231405 806.9772727272727C 903.6474833288045 806.9772727272727 875.396679894336 803.25 818.796875 803.25" stroke="#323232" stroke-width="2" fill="none" marker-end="url(#SvgjsMarker1243)"></path></g><g id="SvgjsG1245"><path id="SvgjsPath1246" d="M783.796875 590.25C 783.796875 661.45 783.796875 697.05 783.796875 768.25" stroke="#323232" stroke-width="2" fill="none" marker-end="url(#SvgjsMarker1247)"></path><rect id="SvgjsRect1249" width="51" height="16" x="758.296875" y="671.25" fill="#ffffff"></rect><text id="SvgjsText1250" font-family="微软雅黑" text-anchor="middle" font-size="13px" width="51px" fill="#323232" font-weight="400" align="top" lineHeight="16px" anchor="middle" family="微软雅黑" size="13px" weight="400" font-style="" opacity="1" y="669.625" transform="rotate(0)"><tspan id="SvgjsTspan1251" dy="16" x="783.796875"><tspan id="SvgjsTspan1252" style="text-decoration:;">subcribe</tspan></tspan></text></g><g id="SvgjsG1253"><path id="SvgjsPath1254" d="M748.796875 803.25C 689.396875 803.25 659.696875 803.25 600.296875 803.25" stroke="#323232" stroke-width="2" fill="none" marker-end="url(#SvgjsMarker1255)"></path></g><g id="SvgjsG1257" transform="translate(500.296875,768.25)"><path id="SvgjsPath1258" d="M 0 4Q 0 0 4 0L 96 0Q 100 0 100 4L 100 66Q 100 70 96 70L 4 70Q 0 70 0 66Z" stroke="rgba(50,50,50,1)" stroke-width="2" fill="url(#SvgjsLinearGradient1259)"></path><g id="SvgjsG1262"><text id="SvgjsText1263" font-family="微软雅黑" text-anchor="middle" font-size="13px" width="80px" fill="#323232" font-weight="400" align="middle" lineHeight="125%" anchor="middle" family="微软雅黑" size="13px" weight="400" font-style="" opacity="1" y="17.375" transform="rotate(0)"><tspan id="SvgjsTspan1264" dy="16" x="50"><tspan id="SvgjsTspan1265" style="text-decoration:;">Execution </tspan></tspan><tspan id="SvgjsTspan1266" dy="16" x="50"><tspan id="SvgjsTspan1267" style="text-decoration:;">Action</tspan></tspan></text></g></g><g id="SvgjsG1268"><path id="SvgjsPath1269" d="M550.296875 838.25C 550.296875 931.65 783.796875 931.65 783.796875 838.25" stroke-dasharray="3,3" stroke="#323232" stroke-width="2" fill="none" marker-end="url(#SvgjsMarker1270)"></path><rect id="SvgjsRect1272" width="109" height="16" x="612.546875" y="900.3" fill="#ffffff"></rect><text id="SvgjsText1273" font-family="微软雅黑" text-anchor="middle" font-size="13px" width="109px" fill="#323232" font-weight="400" align="top" lineHeight="16px" anchor="middle" family="微软雅黑" size="13px" weight="400" font-style="" opacity="1" y="898.675" transform="rotate(0)"><tspan id="SvgjsTspan1274" dy="16" x="667.046875"><tspan id="SvgjsTspan1275" style="text-decoration:;">self update status</tspan></tspan></text></g><g id="SvgjsG1276" transform="translate(430.50142045454544,978.9545454545453)"><path id="SvgjsPath1277" d="M 0 0L 223.5 0L 223.5 67L 0 67Z" stroke="none" fill="url(#SvgjsPattern1278)"></path></g><g id="SvgjsG1280" transform="translate(184.296875,969)"><path id="SvgjsPath1281" d="M 18 0Q 9 0 9 8.525L 9 34.1Q 9 42.625 0 42.625Q 9 42.625 9 51.15L 9 76.725Q 9 85.25 18 85.25" stroke="rgba(102,204,0,1)" stroke-width="2" fill="none"></path><path id="SvgjsPath1282" d="M 129.1818181818182 85.25Q 138.1818181818182 85.25 138.1818181818182 76.725L 138.1818181818182 51.15Q 138.1818181818182 42.625 147.1818181818182 42.625Q 138.1818181818182 42.625 138.1818181818182 34.1L 138.1818181818182 8.525Q 138.1818181818182 0 129.1818181818182 0" stroke="rgba(102,204,0,1)" stroke-width="2" fill="none"></path><path id="SvgjsPath1283" d="M 0 0L 147.1818181818182 0L 147.1818181818182 85.25L 0 85.25Z" stroke="none" fill="none"></path><g id="SvgjsG1284"><text id="SvgjsText1285" font-family="微软雅黑" text-anchor="middle" font-size="13px" width="128px" fill="#323232" font-weight="400" align="middle" lineHeight="125%" anchor="middle" family="微软雅黑" size="13px" weight="400" font-style="" opacity="1" y="-47" transform="rotate(0)"><tspan id="SvgjsTspan1286" dy="16" x="74"><tspan id="SvgjsTspan1287" style="text-decoration:;">Flow_Script_Result_1</tspan></tspan><tspan id="SvgjsTspan1288" dy="16" x="74"><tspan id="SvgjsTspan1289" style="text-decoration:;">Flow_Script_Result_</tspan></tspan><tspan id="SvgjsTspan1290" dy="16" x="74"><tspan id="SvgjsTspan1291" style="text-decoration:;">2</tspan></tspan><tspan id="SvgjsTspan1292" dy="16" x="74"><tspan id="SvgjsTspan1293" style="text-decoration:;">Flow_Script_Result_</tspan></tspan><tspan id="SvgjsTspan1294" dy="16" x="74"><tspan id="SvgjsTspan1295" style="text-decoration:;">3</tspan></tspan><tspan id="SvgjsTspan1296" dy="16" x="74"><tspan id="SvgjsTspan1297" style="text-decoration:;">Flow_Script_Result_</tspan></tspan><tspan id="SvgjsTspan1298" dy="16" x="74"><tspan id="SvgjsTspan1299" style="text-decoration:;">4</tspan></tspan><tspan id="SvgjsTspan1300" dy="16" x="74"><tspan id="SvgjsTspan1301" style="text-decoration:;">Flow_Script_Result_</tspan></tspan><tspan id="SvgjsTspan1302" dy="16" x="74"><tspan id="SvgjsTspan1303" style="text-decoration:;">5</tspan></tspan><tspan id="SvgjsTspan1304" dy="16" x="74"><tspan id="SvgjsTspan1305" style="text-decoration:;">Context_Action_Res</tspan></tspan><tspan id="SvgjsTspan1306" dy="16" x="74"><tspan id="SvgjsTspan1307" style="text-decoration:;">ults</tspan></tspan></text></g></g><g id="SvgjsG1308"><path id="SvgjsPath1309" d="M331.4786931818182 1011.625L380.9900568181818 1011.625L380.9900568181818 1012.4545454545453L430.50142045454544 1012.4545454545453" stroke-dasharray="3,3" stroke="#323232" stroke-width="2" fill="none" marker-end="url(#SvgjsMarker1310)"></path></g><g id="SvgjsG1312"><path id="SvgjsPath1313" d="M500.296875 803.25C 348.88953534963827 803.25 32.889535349638265 1011.625 184.296875 1011.625" stroke="#323232" stroke-width="2" fill="none" marker-end="url(#SvgjsMarker1314)"></path></g><g id="SvgjsG1316"><path id="SvgjsPath1317" d="M550.296875 768.25C 550.296875 637.1409137397411 241.046875 790.7340862602589 241.046875 659.625" stroke-dasharray="3,3" stroke="#323232" stroke-width="2" fill="none" marker-end="url(#SvgjsMarker1318)"></path><rect id="SvgjsRect1320" width="42" height="16" x="374.671875" y="705.9375" fill="#ffffff"></rect><text id="SvgjsText1321" font-family="微软雅黑" text-anchor="middle" font-size="13px" width="42px" fill="#323232" font-weight="400" align="top" lineHeight="16px" anchor="middle" family="微软雅黑" size="13px" weight="400" font-style="" opacity="1" y="704.3125" transform="rotate(0)"><tspan id="SvgjsTspan1322" dy="16" x="395.671875"><tspan id="SvgjsTspan1323" style="text-decoration:;">update</tspan></tspan></text></g><g id="SvgjsG1324"><path id="SvgjsPath1325" d="M321.296875 613.25C 588.3662702534043 613.25 771.296875 683.25 960.2472882231405 806.9772727272727" stroke-dasharray="3,3" stroke="#323232" stroke-width="2" fill="none" marker-end="url(#SvgjsMarker1326)"></path><rect id="SvgjsRect1328" width="33" height="16" x="653.5666998729192" y="655.7159090909091" fill="#ffffff"></rect><text id="SvgjsText1329" font-family="微软雅黑" text-anchor="middle" font-size="13px" width="33px" fill="#323232" font-weight="400" align="top" lineHeight="16px" anchor="middle" family="微软雅黑" size="13px" weight="400" font-style="" opacity="1" y="654.0909090909091" transform="rotate(0)"><tspan id="SvgjsTspan1330" dy="16" x="670.0666998729192"><tspan id="SvgjsTspan1331" style="text-decoration:;">query</tspan></tspan></text></g><g id="SvgjsG1332" transform="translate(1098.296875,383.25)"><path id="SvgjsPath1333" d="M 0 4Q 0 0 4 0L 96 0Q 100 0 100 4L 100 66Q 100 70 96 70L 4 70Q 0 70 0 66Z" stroke="rgba(51,51,255,1)" stroke-width="2" fill-opacity="1" fill="#ffffff"></path><g id="SvgjsG1334"><text id="SvgjsText1335" font-family="微软雅黑" text-anchor="middle" font-size="13px" width="80px" fill="#323232" font-weight="400" align="middle" lineHeight="125%" anchor="middle" family="微软雅黑" size="13px" weight="400" font-style="" opacity="1" y="17.375" transform="rotate(0)"><tspan id="SvgjsTspan1336" dy="16" x="50"><tspan id="SvgjsTspan1337" style="text-decoration:;">Agent </tspan></tspan><tspan id="SvgjsTspan1338" dy="16" x="50"><tspan id="SvgjsTspan1339" style="text-decoration:;">Predict</tspan></tspan></text></g></g><g id="SvgjsG1340"><path id="SvgjsPath1341" d="M241.046875 566.875C 421.296875 449.25 750.2814838173686 418.25 1098.296875 418.25" stroke-dasharray="8,5" stroke="#323232" stroke-width="2" fill="none" marker-end="url(#SvgjsMarker1342)"></path><rect id="SvgjsRect1344" width="33" height="16" x="590.2598533065132" y="440.453125" fill="#ffffff"></rect><text id="SvgjsText1345" font-family="微软雅黑" text-anchor="middle" font-size="13px" width="33px" fill="#323232" font-weight="400" align="top" lineHeight="16px" anchor="middle" family="微软雅黑" size="13px" weight="400" font-style="" opacity="1" y="438.828125" transform="rotate(0)"><tspan id="SvgjsTspan1346" dy="16" x="606.7598533065132"><tspan id="SvgjsTspan1347" style="text-decoration:;">query</tspan></tspan></text></g><g id="SvgjsG1348"><path id="SvgjsPath1349" d="M833.796875 555.25C 952.9466966532447 555.25 979.1470533467553 418.25 1098.296875 418.25" stroke-dasharray="8,5" stroke="#323232" stroke-width="2" fill="none" marker-end="url(#SvgjsMarker1350)"></path><rect id="SvgjsRect1352" width="33" height="16" x="949.546875" y="478.75" fill="#ffffff"></rect><text id="SvgjsText1353" font-family="微软雅黑" text-anchor="middle" font-size="13px" width="33px" fill="#323232" font-weight="400" align="top" lineHeight="16px" anchor="middle" family="微软雅黑" size="13px" weight="400" font-style="" opacity="1" y="477.125" transform="rotate(0)"><tspan id="SvgjsTspan1354" dy="16" x="966.046875"><tspan id="SvgjsTspan1355" style="text-decoration:;">query</tspan></tspan></text></g><g id="SvgjsG1356"><path id="SvgjsPath1357" d="M1198.296875 418.25C 1283.857613659738 418.25 1373.296875 455.68926134026196 1373.296875 541.25" stroke="#323232" stroke-width="2" fill="none" marker-end="url(#SvgjsMarker1358)"></path></g><g id="SvgjsG1360" transform="translate(1338.296875,541.25)"><path id="SvgjsPath1361" d="M 0 35C 0 -11.666666666666666 70 -11.666666666666666 70 35C 70 81.66666666666667 0 81.66666666666667 0 35Z" stroke="rgba(50,50,50,1)" stroke-width="2" fill-opacity="1" fill="#ffffff"></path><g id="SvgjsG1362"><text id="SvgjsText1363" font-family="微软雅黑" text-anchor="middle" font-size="13px" width="50px" fill="#323232" font-weight="400" align="middle" lineHeight="125%" anchor="middle" family="微软雅黑" size="13px" weight="400" font-style="" opacity="1" y="17.375" transform="rotate(0)"><tspan id="SvgjsTspan1364" dy="16" x="35"><tspan id="SvgjsTspan1365" style="text-decoration:;">Stateful </tspan></tspan><tspan id="SvgjsTspan1366" dy="16" x="35"><tspan id="SvgjsTspan1367" style="text-decoration:;">Agent</tspan></tspan></text></g></g><g id="SvgjsG1368" transform="translate(1098.296875,453.25)"><path id="SvgjsPath1369" d="M 0 4Q 0 0 4 0L 96 0Q 100 0 100 4L 100 22Q 100 26 96 26L 4 26Q 0 26 0 22Z" stroke="rgba(51,51,255,1)" stroke-width="2" fill-opacity="1" fill="#ffffff"></path><g id="SvgjsG1370"><text id="SvgjsText1371" font-family="微软雅黑" text-anchor="middle" font-size="13px" width="80px" fill="#323232" font-weight="400" align="middle" lineHeight="125%" anchor="middle" family="微软雅黑" size="13px" weight="400" font-style="" opacity="1" y="-4.625" transform="rotate(0)"><tspan id="SvgjsTspan1372" dy="16" x="50"><tspan id="SvgjsTspan1373" style="text-decoration:;">Self </tspan></tspan><tspan id="SvgjsTspan1374" dy="16" x="50"><tspan id="SvgjsTspan1375" style="text-decoration:;">Learning</tspan></tspan></text></g></g></svg>