<svg id="SvgjsSvg1006" width="1405" height="907.75" xmlns="http://www.w3.org/2000/svg" version="1.1" xmlns:xlink="http://www.w3.org/1999/xlink" xmlns:svgjs="http://svgjs.com/svgjs"><defs id="SvgjsDefs1007"><marker id="SvgjsMarker1098" markerWidth="16" markerHeight="12" refX="16" refY="6" viewBox="0 0 16 12" orient="auto" markerUnits="userSpaceOnUse" stroke-dasharray="0,0"><path id="SvgjsPath1099" d="M0,2 L14,6 L0,11 L0,2" fill="#323232" stroke="#323232" stroke-width="2"></path></marker><pattern id="SvgjsPattern1112" x="0" y="0" width="255" height="80" patternUnits="userSpaceOnUse"><image id="SvgjsImage1113" xlink:href="https://cdn.processon.com/5d4b9ca0e4b0f4c23d650fd2?e=1565239984&amp;amp;token=trhI0BY8QfVrIGn9nENop6JAc6l5nZuxhjQ62UfM:CgKk2d29CN4ne993pXUf9vMZPAM=" width="255" height="80" preserveAspectRatio="none" crossOrigin="anonymous" x="0" y="0"></image></pattern><marker id="SvgjsMarker1122" markerWidth="16" markerHeight="12" refX="16" refY="6" viewBox="0 0 16 12" orient="auto" markerUnits="userSpaceOnUse" stroke-dasharray="0,0"><path id="SvgjsPath1123" d="M0,2 L14,6 L0,11 L0,2" fill="#323232" stroke="#323232" stroke-width="2"></path></marker><marker id="SvgjsMarker1130" markerWidth="16" markerHeight="12" refX="16" refY="6" viewBox="0 0 16 12" orient="auto" markerUnits="userSpaceOnUse" stroke-dasharray="0,0"><path id="SvgjsPath1131" d="M0,2 L14,6 L0,11 L0,2" fill="#323232" stroke="#323232" stroke-width="2"></path></marker><marker id="SvgjsMarker1138" markerWidth="16" markerHeight="12" refX="16" refY="6" viewBox="0 0 16 12" orient="auto" markerUnits="userSpaceOnUse" stroke-dasharray="0,0"><path id="SvgjsPath1139" d="M0,2 L14,6 L0,11 L0,2" fill="#323232" stroke="#323232" stroke-width="2"></path></marker><marker id="SvgjsMarker1152" markerWidth="16" markerHeight="12" refX="16" refY="6" viewBox="0 0 16 12" orient="auto" markerUnits="userSpaceOnUse" stroke-dasharray="0,0"><path id="SvgjsPath1153" d="M0,2 L14,6 L0,11 L0,2" fill="#323232" stroke="#323232" stroke-width="2"></path></marker><marker id="SvgjsMarker1156" markerWidth="16" markerHeight="12" refX="16" refY="6" viewBox="0 0 16 12" orient="auto" markerUnits="userSpaceOnUse" stroke-dasharray="0,0"><path id="SvgjsPath1157" d="M0,2 L14,6 L0,11 L0,2" fill="#323232" stroke="#323232" stroke-width="2"></path></marker><marker id="SvgjsMarker1160" markerWidth="16" markerHeight="12" refX="16" refY="6" viewBox="0 0 16 12" orient="auto" markerUnits="userSpaceOnUse" stroke-dasharray="0,0"><path id="SvgjsPath1161" d="M0,2 L14,6 L0,11 L0,2" fill="#323232" stroke="#323232" stroke-width="2"></path></marker><marker id="SvgjsMarker1164" markerWidth="16" markerHeight="12" refX="16" refY="6" viewBox="0 0 16 12" orient="auto" markerUnits="userSpaceOnUse" stroke-dasharray="0,0"><path id="SvgjsPath1165" d="M0,2 L14,6 L0,11 L0,2" fill="#323232" stroke="#323232" stroke-width="2"></path></marker><marker id="SvgjsMarker1172" markerWidth="16" markerHeight="12" refX="16" refY="6" viewBox="0 0 16 12" orient="auto" markerUnits="userSpaceOnUse" stroke-dasharray="0,0"><path id="SvgjsPath1173" d="M0,2 L14,6 L0,11 L0,2" fill="#323232" stroke="#323232" stroke-width="2"></path></marker><pattern id="SvgjsPattern1180" x="0" y="0" width="62" height="63" patternUnits="userSpaceOnUse"><image id="SvgjsImage1181" xlink:href="https://cdn.processon.com/5d4ba361e4b07f95f42e586c?e=1565241713&amp;amp;token=trhI0BY8QfVrIGn9nENop6JAc6l5nZuxhjQ62UfM:L2dfsfcAesBuiF0-s-85EbLGzh0=" width="62" height="63" preserveAspectRatio="none" crossOrigin="anonymous" x="0" y="0"></image></pattern><pattern id="SvgjsPattern1184" x="0" y="0" width="54" height="49" patternUnits="userSpaceOnUse"><image id="SvgjsImage1185" xlink:href="https://cdn.processon.com/5d4ba37be4b07f95f42e5881?e=1565241739&amp;amp;token=trhI0BY8QfVrIGn9nENop6JAc6l5nZuxhjQ62UfM:5U1CdSx4AxFGyN1oidY8bdakEKc=" width="54" height="49" preserveAspectRatio="none" crossOrigin="anonymous" x="0" y="0"></image></pattern><pattern id="SvgjsPattern1188" x="0" y="0" width="188.5" height="88.5" patternUnits="userSpaceOnUse"><image id="SvgjsImage1189" xlink:href="https://cdn.processon.com/5d4ba3f0e4b0591e1abb488f?e=1565241856&amp;amp;token=trhI0BY8QfVrIGn9nENop6JAc6l5nZuxhjQ62UfM:HW1u6Lr8_AX2W1VFhJDe0H3x5Qo=" width="188.5" height="88.5" preserveAspectRatio="none" crossOrigin="anonymous" x="0" y="0"></image></pattern><marker id="SvgjsMarker1206" markerWidth="16" markerHeight="12" refX="16" refY="6" viewBox="0 0 16 12" orient="auto" markerUnits="userSpaceOnUse" stroke-dasharray="0,0"><path id="SvgjsPath1207" d="M0,2 L14,6 L0,11 L0,2" fill="#323232" stroke="#323232" stroke-width="2"></path></marker><marker id="SvgjsMarker1222" markerWidth="16" markerHeight="12" refX="16" refY="6" viewBox="0 0 16 12" orient="auto" markerUnits="userSpaceOnUse" stroke-dasharray="0,0"><path id="SvgjsPath1223" d="M0,2 L14,6 L0,11 L0,2" fill="#323232" stroke="#323232" stroke-width="2"></path></marker><marker id="SvgjsMarker1240" markerWidth="16" markerHeight="12" refX="16" refY="6" viewBox="0 0 16 12" orient="auto" markerUnits="userSpaceOnUse" stroke-dasharray="0,0"><path id="SvgjsPath1241" d="M0,2 L14,6 L0,11 L0,2" fill="#323232" stroke="#323232" stroke-width="2"></path></marker><marker id="SvgjsMarker1248" markerWidth="16" markerHeight="12" refX="16" refY="6" viewBox="0 0 16 12" orient="auto" markerUnits="userSpaceOnUse" stroke-dasharray="0,0"><path id="SvgjsPath1249" d="M0,2 L14,6 L0,11 L0,2" fill="#323232" stroke="#323232" stroke-width="2"></path></marker><marker id="SvgjsMarker1258" markerWidth="16" markerHeight="12" refX="16" refY="6" viewBox="0 0 16 12" orient="auto" markerUnits="userSpaceOnUse" stroke-dasharray="0,0"><path id="SvgjsPath1259" d="M0,2 L14,6 L0,11 L0,2" fill="#323232" stroke="#323232" stroke-width="2"></path></marker><marker id="SvgjsMarker1262" markerWidth="16" markerHeight="12" refX="16" refY="6" viewBox="0 0 16 12" orient="auto" markerUnits="userSpaceOnUse" stroke-dasharray="0,0"><path id="SvgjsPath1263" d="M0,2 L14,6 L0,11 L0,2" fill="#323232" stroke="#323232" stroke-width="2"></path></marker><marker id="SvgjsMarker1274" markerWidth="16" markerHeight="12" refX="16" refY="6" viewBox="0 0 16 12" orient="auto" markerUnits="userSpaceOnUse" stroke-dasharray="0,0"><path id="SvgjsPath1275" d="M0,2 L14,6 L0,11 L0,2" fill="#323232" stroke="#323232" stroke-width="2"></path></marker><marker id="SvgjsMarker1288" markerWidth="16" markerHeight="12" refX="16" refY="6" viewBox="0 0 16 12" orient="auto" markerUnits="userSpaceOnUse" stroke-dasharray="0,0"><path id="SvgjsPath1289" d="M0,2 L14,6 L0,11 L0,2" fill="#323232" stroke="#323232" stroke-width="2"></path></marker><marker id="SvgjsMarker1296" markerWidth="16" markerHeight="12" refX="16" refY="6" viewBox="0 0 16 12" orient="auto" markerUnits="userSpaceOnUse" stroke-dasharray="0,0"><path id="SvgjsPath1297" d="M0,2 L14,6 L0,11 L0,2" fill="#323232" stroke="#323232" stroke-width="2"></path></marker><marker id="SvgjsMarker1310" markerWidth="16" markerHeight="12" refX="16" refY="6" viewBox="0 0 16 12" orient="auto" markerUnits="userSpaceOnUse" stroke-dasharray="0,0"><path id="SvgjsPath1311" d="M0,2 L14,6 L0,11 L0,2" fill="#323232" stroke="#323232" stroke-width="2"></path></marker><marker id="SvgjsMarker1314" markerWidth="16" markerHeight="12" refX="16" refY="6" viewBox="0 0 16 12" orient="auto" markerUnits="userSpaceOnUse" stroke-dasharray="0,0"><path id="SvgjsPath1315" d="M0,2 L14,6 L0,11 L0,2" fill="#323232" stroke="#323232" stroke-width="2"></path></marker><marker id="SvgjsMarker1324" markerWidth="16" markerHeight="12" refX="16" refY="6" viewBox="0 0 16 12" orient="auto" markerUnits="userSpaceOnUse" stroke-dasharray="0,0"><path id="SvgjsPath1325" d="M0,2 L14,6 L0,11 L0,2" fill="#323232" stroke="#323232" stroke-width="2"></path></marker><marker id="SvgjsMarker1340" markerWidth="16" markerHeight="12" refX="16" refY="6" viewBox="0 0 16 12" orient="auto" markerUnits="userSpaceOnUse" stroke-dasharray="0,0"><path id="SvgjsPath1341" d="M0,2 L14,6 L0,11 L0,2" fill="#323232" stroke="#323232" stroke-width="2"></path></marker><marker id="SvgjsMarker1344" markerWidth="16" markerHeight="12" refX="16" refY="6" viewBox="0 0 16 12" orient="auto" markerUnits="userSpaceOnUse" stroke-dasharray="0,0"><path id="SvgjsPath1345" d="M0,2 L14,6 L0,11 L0,2" fill="#323232" stroke="#323232" stroke-width="2"></path></marker><marker id="SvgjsMarker1392" markerWidth="16" markerHeight="12" refX="16" refY="6" viewBox="0 0 16 12" orient="auto" markerUnits="userSpaceOnUse" stroke-dasharray="0,0"><path id="SvgjsPath1393" d="M0,2 L14,6 L0,11 L0,2" fill="#323232" stroke="#323232" stroke-width="2"></path></marker></defs><g id="SvgjsG1008" transform="translate(113,298.75)"><path id="SvgjsPath1009" d="M 0 0L 998 0L 998 584L 0 584Z" stroke="rgba(50,50,50,1)" stroke-width="2" fill-opacity="1" fill="#ffffff"></path><g id="SvgjsG1010"><text id="SvgjsText1011" font-family="微软雅黑" text-anchor="start" font-size="13px" width="978px" fill="#323232" font-weight="400" align="top" lineHeight="125%" anchor="start" family="微软雅黑" size="13px" weight="400" font-style="" opacity="1" y="-1.625" transform="rotate(0)"><tspan id="SvgjsTspan1012" dy="16" x="10"><tspan id="SvgjsTspan1013" style="text-decoration:;">k8s cluster</tspan></tspan></text></g></g><g id="SvgjsG1014" transform="translate(475,449.75)"><path id="SvgjsPath1015" d="M 0 4Q 0 0 4 0L 256 0Q 260 0 260 4L 260 261Q 260 265 256 265L 4 265Q 0 265 0 261Z" stroke="rgba(50,50,50,1)" stroke-width="2" fill-opacity="1" fill="#ffcccc"></path><g id="SvgjsG1016"><text id="SvgjsText1017" font-family="微软雅黑" text-anchor="start" font-size="13px" width="240px" fill="#323232" font-weight="400" align="top" lineHeight="125%" anchor="start" family="微软雅黑" size="13px" weight="400" font-style="" opacity="1" y="-1.625" transform="rotate(0)"><tspan id="SvgjsTspan1018" dy="16" x="10"><tspan id="SvgjsTspan1019" style="text-decoration:;">Agent</tspan></tspan></text></g></g><g id="SvgjsG1020" transform="translate(644,623)"><path id="SvgjsPath1021" d="M 0 0L 111 0L 111 34.502293577981646L 0 34.502293577981646Z" stroke="rgba(50,50,50,1)" stroke-width="2" fill-opacity="1" fill="#ffffcc"></path><g id="SvgjsG1022"><text id="SvgjsText1023" font-family="微软雅黑" text-anchor="middle" font-size="13px" width="91px" fill="#323232" font-weight="400" align="middle" lineHeight="125%" anchor="middle" family="微软雅黑" size="13px" weight="400" font-style="" opacity="1" y="7.626146788990823" transform="rotate(0)"><tspan id="SvgjsTspan1024" dy="16" x="55.5"><tspan id="SvgjsTspan1025" style="text-decoration:;">Chromium</tspan></tspan></text></g></g><g id="SvgjsG1026" transform="translate(644,665.9518348623853)"><path id="SvgjsPath1027" d="M 0 0L 111 0L 111 33.79816513761469L 0 33.79816513761469Z" stroke="rgba(50,50,50,1)" stroke-width="2" fill-opacity="1" fill="#99ccff"></path><g id="SvgjsG1028"><text id="SvgjsText1029" font-family="微软雅黑" text-anchor="middle" font-size="13px" width="91px" fill="#323232" font-weight="400" align="middle" lineHeight="125%" anchor="middle" family="微软雅黑" size="13px" weight="400" font-style="" opacity="1" y="7.274082568807344" transform="rotate(0)"><tspan id="SvgjsTspan1030" dy="16" x="55.5"><tspan id="SvgjsTspan1031" style="text-decoration:;">WebDriver</tspan></tspan></text></g></g><g id="SvgjsG1032" transform="translate(461,486.75)"><path id="SvgjsPath1033" d="M 0 0L 102 0L 102 51L 0 51Z" stroke="rgba(50,50,50,1)" stroke-width="2" fill-opacity="1" fill="#66ff66"></path><g id="SvgjsG1034"><text id="SvgjsText1035" font-family="微软雅黑" text-anchor="middle" font-size="13px" width="82px" fill="#323232" font-weight="400" align="middle" lineHeight="125%" anchor="middle" family="微软雅黑" size="13px" weight="400" font-style="" opacity="1" y="15.875" transform="rotate(0)"><tspan id="SvgjsTspan1036" dy="16" x="51"><tspan id="SvgjsTspan1037" style="text-decoration:;">ActionBus</tspan></tspan></text></g></g><g id="SvgjsG1038" transform="translate(822.5,568.0807543520309)"><path id="SvgjsPath1039" d="M 0 3.542311411992263Q 57.25 -3.542311411992263 114.5 3.542311411992263L 114.5 28.338491295938105L 0 28.338491295938105L 0 3.542311411992263Z" stroke="rgba(50,50,50,1)" stroke-width="2" fill-opacity="1" fill="#99ffcc"></path><g id="SvgjsG1040"><text id="SvgjsText1041" font-family="微软雅黑" text-anchor="middle" font-size="12px" width="95px" fill="#323232" font-weight="400" align="middle" lineHeight="125%" anchor="middle" family="微软雅黑" size="12px" weight="400" font-style="" opacity="1" y="-2.3307543520309473" transform="rotate(0)"><tspan id="SvgjsTspan1042" dy="15" x="57.5"><tspan id="SvgjsTspan1043" style="text-decoration:;">ScreenshotActio</tspan></tspan><tspan id="SvgjsTspan1044" dy="15" x="57.5"><tspan id="SvgjsTspan1045" style="text-decoration:;">n</tspan></tspan></text></g></g><g id="SvgjsG1046" transform="translate(822.5,424.7335589941973)"><path id="SvgjsPath1047" d="M 0 3.542311411992263Q 57.25 -3.542311411992263 114.5 3.542311411992263L 114.5 28.338491295938105L 0 28.338491295938105L 0 3.542311411992263Z" stroke="rgba(50,50,50,1)" stroke-width="2" fill-opacity="1" fill="#99ffcc"></path><g id="SvgjsG1048"><text id="SvgjsText1049" font-family="微软雅黑" text-anchor="middle" font-size="12px" width="95px" fill="#323232" font-weight="400" align="middle" lineHeight="125%" anchor="middle" family="微软雅黑" size="12px" weight="400" font-style="" opacity="1" y="5.169245647969053" transform="rotate(0)"><tspan id="SvgjsTspan1050" dy="15" x="57.5"><tspan id="SvgjsTspan1051" style="text-decoration:;">SelfReportAction</tspan></tspan></text></g></g><g id="SvgjsG1052" transform="translate(822.5,464.3764501160092)"><path id="SvgjsPath1053" d="M 0 3.542311411992263Q 57.25 -3.542311411992263 114.5 3.542311411992263L 114.5 28.338491295938105L 0 28.338491295938105L 0 3.542311411992263Z" stroke="rgba(50,50,50,1)" stroke-width="2" fill-opacity="1" fill="#99ffcc"></path><g id="SvgjsG1054"><text id="SvgjsText1055" font-family="微软雅黑" text-anchor="middle" font-size="12px" width="95px" fill="#323232" font-weight="400" align="middle" lineHeight="125%" anchor="middle" family="微软雅黑" size="12px" weight="400" font-style="" opacity="1" y="5.169245647969053" transform="rotate(0)"><tspan id="SvgjsTspan1056" dy="15" x="57.5"><tspan id="SvgjsTspan1057" style="text-decoration:;">LogAction</tspan></tspan></text></g></g><g id="SvgjsG1058" transform="translate(1206,301.75)"><path id="SvgjsPath1059" d="M 0 0L 158 0L 174 16L 174 229L 0 229L 0 0Z" stroke="none" fill-opacity="1" fill="#ffffaa"></path><path id="SvgjsPath1060" d="M 158 0L 158 16L 174 16Z" stroke="none" fill-opacity="1" fill="#cdcdcd"></path><path id="SvgjsPath1061" d="M 0 0L 158 0L 174 16L 174 229L 0 229L 0 0Z" stroke="none" fill="none"></path><g id="SvgjsG1062"><text id="SvgjsText1063" font-family="微软雅黑" text-anchor="start" font-size="13px" width="154px" fill="#323232" font-weight="400" align="middle" lineHeight="125%" anchor="start" family="微软雅黑" size="13px" weight="400" font-style="" opacity="1" y="8.875" transform="rotate(0)"><tspan id="SvgjsTspan1064" dy="16" x="10"><tspan id="SvgjsTspan1065" style="text-decoration:;">ActionBus:</tspan></tspan><tspan id="SvgjsTspan1066" dy="16" x="10"><tspan id="SvgjsTspan1067" style="text-decoration:;">receive action event;</tspan></tspan><tspan id="SvgjsTspan1068" dy="16" x="10"><tspan id="SvgjsTspan1069" style="text-decoration:;">route event to internal </tspan></tspan><tspan id="SvgjsTspan1070" dy="16" x="10"><tspan id="SvgjsTspan1071" style="text-decoration:;">processing;</tspan></tspan><tspan id="SvgjsTspan1072" dy="16" x="10"><tspan id="SvgjsTspan1073" style="text-decoration:;">response event handle </tspan></tspan><tspan id="SvgjsTspan1074" dy="16" x="10"><tspan id="SvgjsTspan1075" style="text-decoration:;">result.</tspan></tspan><tspan id="SvgjsTspan1076" dy="16" x="10"><tspan id="SvgjsTspan1077" style="text-decoration:;"> </tspan></tspan><tspan id="SvgjsTspan1078" dy="16" x="10"><tspan id="SvgjsTspan1079" style="text-decoration:;">Action:</tspan></tspan><tspan id="SvgjsTspan1080" dy="16" x="10"><tspan id="SvgjsTspan1081" style="text-decoration:;">kinds of event received </tspan></tspan><tspan id="SvgjsTspan1082" dy="16" x="10"><tspan id="SvgjsTspan1083" style="text-decoration:;">from ActionBus. like: </tspan></tspan><tspan id="SvgjsTspan1084" dy="16" x="10"><tspan id="SvgjsTspan1085" style="text-decoration:;">Click, input,select, drag.</tspan></tspan><tspan id="SvgjsTspan1086" dy="16" x="10"><tspan id="SvgjsTspan1087" style="text-decoration:;"> </tspan></tspan><tspan id="SvgjsTspan1088" dy="16" x="10"><tspan id="SvgjsTspan1089" style="text-decoration:;"> </tspan></tspan></text></g></g><g id="SvgjsG1090" transform="translate(940.5,49.75)"><path id="SvgjsPath1091" d="M 15 46.199999999999996C -12.5 33 5 23.099999999999998 11.25 19.8C 8.75 3.3000000000000003 40 0 52.5 6.6000000000000005C 62.5 -3.3000000000000003 93.75 0 93.75 9.9C 118.75 6.6000000000000005 128.75 19.8 118.75 36.300000000000004C 127.5 49.5 118.75 66 90 59.4C 83.75 67.98 58.75 67.98 52.5 59.4C 40 66 15 62.699999999999996 15 46.199999999999996Z" stroke="rgba(50,50,50,1)" stroke-width="2" fill-opacity="1" fill="#ffffff"></path><g id="SvgjsG1092"><text id="SvgjsText1093" font-family="微软雅黑" text-anchor="middle" font-size="13px" width="105px" fill="#323232" font-weight="400" align="middle" lineHeight="125%" anchor="middle" family="微软雅黑" size="13px" weight="400" font-style="" opacity="1" y="23.375" transform="rotate(0)"><tspan id="SvgjsTspan1094" dy="16" x="62.5"><tspan id="SvgjsTspan1095" style="text-decoration:;">DockerHub</tspan></tspan></text></g></g><g id="SvgjsG1096"><path id="SvgjsPath1097" d="M1011.75 115.75L1011.75 819.75L605 819.75L605 714.75" stroke-dasharray="8,5" stroke="#323232" stroke-width="2" fill="none" marker-end="url(#SvgjsMarker1098)"></path><rect id="SvgjsRect1100" width="37" height="16" x="993.25" y="715.625" fill="#ffffff"></rect><text id="SvgjsText1101" font-family="微软雅黑" text-anchor="middle" font-size="13px" width="37px" fill="#ff0000" font-weight="400" align="top" lineHeight="16px" anchor="middle" family="微软雅黑" size="13px" weight="400" font-style="" opacity="1" y="714" transform="rotate(0)"><tspan id="SvgjsTspan1102" dy="16" x="1011.75"><tspan id="SvgjsTspan1103" style="text-decoration:;">6. pull</tspan></tspan></text></g><g id="SvgjsG1104" transform="translate(174,762.25)"><path id="SvgjsPath1105" d="M 15.18 54.949999999999996C -12.65 39.25 5.0600000000000005 27.474999999999998 11.385 23.55C 8.855 3.9250000000000003 40.480000000000004 0 53.129999999999995 7.8500000000000005C 63.25 -3.9250000000000003 94.875 0 94.875 11.775C 120.175 7.8500000000000005 130.29500000000002 23.55 120.175 43.175000000000004C 129.03 58.875 120.175 78.5 91.08 70.65C 84.75500000000001 80.855 59.455 80.855 53.129999999999995 70.65C 40.480000000000004 78.5 15.18 74.575 15.18 54.949999999999996Z" stroke="rgba(50,50,50,1)" stroke-width="2" fill-opacity="1" fill="#ffffff"></path><g id="SvgjsG1106"><text id="SvgjsText1107" font-family="微软雅黑" text-anchor="middle" font-size="13px" width="107px" fill="#323232" font-weight="400" align="middle" lineHeight="125%" anchor="middle" family="微软雅黑" size="13px" weight="400" font-style="" opacity="1" y="29.625" transform="rotate(0)"><tspan id="SvgjsTspan1108" dy="16" x="63.5"><tspan id="SvgjsTspan1109" style="text-decoration:;">k8s API</tspan></tspan></text></g></g><g id="SvgjsG1110" transform="translate(40.5,25)"><path id="SvgjsPath1111" d="M 0 0L 255 0L 255 80L 0 80Z" stroke="none" fill="url(#SvgjsPattern1112)"></path></g><g id="SvgjsG1114" transform="translate(193,460.75)"><path id="SvgjsPath1115" d="M 0 4Q 0 0 4 0L 111 0Q 115 0 115 4L 115 99Q 115 103 111 103L 4 103Q 0 103 0 99Z" stroke="rgba(50,50,50,1)" stroke-width="2" fill-opacity="1" fill="#ccccff"></path><g id="SvgjsG1116"><text id="SvgjsText1117" font-family="微软雅黑" text-anchor="middle" font-size="13px" width="95px" fill="#323232" font-weight="400" align="middle" lineHeight="125%" anchor="middle" family="微软雅黑" size="13px" weight="400" font-style="" opacity="1" y="41.875" transform="rotate(0)"><tspan id="SvgjsTspan1118" dy="16" x="57.5"><tspan id="SvgjsTspan1119" style="text-decoration:;">ActionEngine</tspan></tspan></text></g></g><g id="SvgjsG1120"><path id="SvgjsPath1121" d="M295.693 825.05L385.3465 825.05L385.3465 582.25L475 582.25" stroke="#323232" stroke-width="2" fill="none" marker-end="url(#SvgjsMarker1122)"></path><rect id="SvgjsRect1124" width="8" height="16" x="381.3465" y="695.65" fill="#ffffff"></rect><text id="SvgjsText1125" font-family="微软雅黑" text-anchor="middle" font-size="13px" width="8px" fill="#ff0000" font-weight="400" align="top" lineHeight="16px" anchor="middle" family="微软雅黑" size="13px" weight="400" font-style="" opacity="1" y="694.025" transform="rotate(0)"><tspan id="SvgjsTspan1126" dy="16" x="385.3465"><tspan id="SvgjsTspan1127" style="text-decoration:;">5</tspan></tspan></text></g><g id="SvgjsG1128"><path id="SvgjsPath1129" d="M168 105L168 132.125L168 132.125L168 159.25" stroke-dasharray="8,5" stroke="#323232" stroke-width="2" fill="none" marker-end="url(#SvgjsMarker1130)"></path><rect id="SvgjsRect1132" width="5" height="16" x="165.5" y="124.125" fill="#ffffff"></rect><text id="SvgjsText1133" font-family="微软雅黑" text-anchor="middle" font-size="13px" width="5px" fill="#323232" font-weight="400" align="top" lineHeight="16px" anchor="middle" family="微软雅黑" size="13px" weight="400" font-style="" opacity="1" y="122.5" transform="rotate(0)"><tspan id="SvgjsTspan1134" dy="16" x="168"><tspan id="SvgjsTspan1135" style="text-decoration:;">1</tspan></tspan></text></g><g id="SvgjsG1136"><path id="SvgjsPath1137" d="M250.5 563.75L250.5 596.75L250.5 596.75L250.5 629.75" stroke="#323232" stroke-width="2" fill="none" marker-end="url(#SvgjsMarker1138)"></path><rect id="SvgjsRect1140" width="61" height="16" x="220" y="588.75" fill="#ffffff"></rect><text id="SvgjsText1141" font-family="微软雅黑" text-anchor="middle" font-size="13px" width="61px" fill="#ff0000" font-weight="400" align="top" lineHeight="16px" anchor="middle" family="微软雅黑" size="13px" weight="400" font-style="" opacity="1" y="587.125" transform="rotate(0)"><tspan id="SvgjsTspan1142" dy="16" x="250.5"><tspan id="SvgjsTspan1143" style="text-decoration:;">3. request</tspan></tspan></text></g><g id="SvgjsG1144" transform="translate(645,530.75)"><path id="SvgjsPath1145" d="M 0 0L 109 0L 109 41.03505858805272L 0 41.03505858805272Z" stroke="rgba(50,50,50,1)" stroke-width="2" fill-opacity="1" fill="#99ffcc"></path><g id="SvgjsG1146"><text id="SvgjsText1147" font-family="微软雅黑" text-anchor="middle" font-size="13px" width="89px" fill="#323232" font-weight="400" align="middle" lineHeight="125%" anchor="middle" family="微软雅黑" size="13px" weight="400" font-style="" opacity="1" y="10.89252929402636" transform="rotate(0)"><tspan id="SvgjsTspan1148" dy="16" x="54.5"><tspan id="SvgjsTspan1149" style="text-decoration:;">ActionFactory</tspan></tspan></text></g></g><g id="SvgjsG1150"><path id="SvgjsPath1151" d="M822.5 582.25L754 551.2675292940264" stroke-dasharray="3,3" stroke="#323232" stroke-width="2" fill="none" marker-end="url(#SvgjsMarker1152)"></path></g><g id="SvgjsG1154"><path id="SvgjsPath1155" d="M822.5 438.90280464216636L754 487.2675292940264" stroke-dasharray="3,3" stroke="#323232" stroke-width="2" fill="none" marker-end="url(#SvgjsMarker1156)"></path></g><g id="SvgjsG1158"><path id="SvgjsPath1159" d="M822.5 478.5456957639783L754 487.2675292940264" stroke-dasharray="3,3" stroke="#323232" stroke-width="2" fill="none" marker-end="url(#SvgjsMarker1160)"></path></g><g id="SvgjsG1162"><path id="SvgjsPath1163" d="M308 512.25L384.5 512.25L384.5 512.25L461 512.25" stroke-dasharray="3,3" stroke="#323232" stroke-width="2" fill="none" marker-end="url(#SvgjsMarker1164)"></path><rect id="SvgjsRect1166" width="52" height="16" x="358.5" y="504.25" fill="#ffffff"></rect><text id="SvgjsText1167" font-family="微软雅黑" text-anchor="middle" font-size="13px" width="52px" fill="#ff0000" font-weight="400" align="top" lineHeight="16px" anchor="middle" family="微软雅黑" size="13px" weight="400" font-style="" opacity="1" y="502.625" transform="rotate(0)"><tspan id="SvgjsTspan1168" dy="16" x="384.5"><tspan id="SvgjsTspan1169" style="text-decoration:;">7. action</tspan></tspan></text></g><g id="SvgjsG1170"><path id="SvgjsPath1171" d="M699.5 466.75L699.5 421.75L699.5 421.75L699.5 376.75" stroke="#323232" stroke-width="2" fill="none" marker-end="url(#SvgjsMarker1172)"></path><rect id="SvgjsRect1174" width="10" height="16" x="694.5" y="413.75" fill="#ffffff"></rect><text id="SvgjsText1175" font-family="微软雅黑" text-anchor="middle" font-size="13px" width="10px" fill="#ff0000" font-weight="400" align="top" lineHeight="16px" anchor="middle" family="微软雅黑" size="13px" weight="400" font-style="" opacity="1" y="412.125" transform="rotate(0)"><tspan id="SvgjsTspan1176" dy="16" x="699.5"><tspan id="SvgjsTspan1177" style="text-decoration:;">11</tspan></tspan></text></g><g id="SvgjsG1178" transform="translate(118,301.75)"><path id="SvgjsPath1179" d="M 0 0L 62 0L 62 63L 0 63Z" stroke="none" fill="url(#SvgjsPattern1180)"></path></g><g id="SvgjsG1182" transform="translate(479,657.25)"><path id="SvgjsPath1183" d="M 0 0L 54 0L 54 49L 0 49Z" stroke="none" fill="url(#SvgjsPattern1184)"></path></g><g id="SvgjsG1186" transform="translate(730,80.75)"><path id="SvgjsPath1187" d="M 0 0L 188.5 0L 188.5 88.5L 0 88.5Z" stroke="none" fill="url(#SvgjsPattern1188)"></path></g><g id="SvgjsG1190" transform="translate(405.5,45.75)"><path id="SvgjsPath1191" d="M 16.98 49C -14.15 35 5.66 24.5 12.735 21C 9.905000000000001 3.5 45.28 0 59.43 7C 70.75 -3.5 106.125 0 106.125 10.5C 134.42499999999998 7 145.745 21 134.42499999999998 38.5C 144.33 52.5 134.42499999999998 70 101.88 63C 94.805 72.10000000000001 66.505 72.10000000000001 59.43 63C 45.28 70 16.98 66.5 16.98 49Z" stroke="rgba(50,50,50,1)" stroke-width="2" fill-opacity="1" fill="#ccffff"></path><g id="SvgjsG1192"><text id="SvgjsText1193" font-family="微软雅黑" text-anchor="middle" font-size="13px" width="122px" fill="#323232" font-weight="400" align="middle" lineHeight="125%" anchor="middle" family="微软雅黑" size="13px" weight="400" font-style="" opacity="1" y="17.375" transform="rotate(0)"><tspan id="SvgjsTspan1194" dy="16" x="71"><tspan id="SvgjsTspan1195" style="text-decoration:;">Cloud Screenshot </tspan></tspan><tspan id="SvgjsTspan1196" dy="16" x="71"><tspan id="SvgjsTspan1197" style="text-decoration:;">API</tspan></tspan></text></g></g><g id="SvgjsG1198" transform="translate(613,319.75)"><path id="SvgjsPath1199" d="M 0 4Q 0 0 4 0L 169 0Q 173 0 173 4L 173 53Q 173 57 169 57L 4 57Q 0 57 0 53Z" stroke-dasharray="3,4" stroke="rgba(50,50,50,1)" stroke-width="2" fill-opacity="1" fill="#ffb366"></path><g id="SvgjsG1200"><text id="SvgjsText1201" font-family="微软雅黑" text-anchor="middle" font-size="13px" width="153px" fill="#323232" font-weight="400" align="middle" lineHeight="125%" anchor="middle" family="微软雅黑" size="13px" weight="400" font-style="" opacity="1" y="18.875" transform="rotate(0)"><tspan id="SvgjsTspan1202" dy="16" x="86.5"><tspan id="SvgjsTspan1203" style="text-decoration:;">Data Middleware</tspan></tspan></text></g></g><g id="SvgjsG1204"><path id="SvgjsPath1205" d="M786 348.25L824.25 348.25L824.25 169.25" stroke-dasharray="8,5" stroke="#323232" stroke-width="2" fill="none" marker-end="url(#SvgjsMarker1206)"></path><rect id="SvgjsRect1208" width="13" height="16" x="817.75" y="269.875" fill="#ffffff"></rect><text id="SvgjsText1209" font-family="微软雅黑" text-anchor="middle" font-size="13px" width="13px" fill="#ff0000" font-weight="400" align="top" lineHeight="16px" anchor="middle" family="微软雅黑" size="13px" weight="400" font-style="" opacity="1" y="268.25" transform="rotate(0)"><tspan id="SvgjsTspan1210" dy="16" x="824.25"><tspan id="SvgjsTspan1211" style="text-decoration:;">13</tspan></tspan></text></g><g id="SvgjsG1212" transform="translate(200.5,629.75)"><path id="SvgjsPath1213" d="M 0 0L 100 0L 100 70L 0 70L 0 0ZM 16.666666666666668 0L 16.666666666666668 70M 83.33333333333333 0L 83.33333333333333 70" stroke="rgba(50,50,50,1)" stroke-width="2" fill-opacity="1" fill="#ffe6cc"></path><g id="SvgjsG1214"><text id="SvgjsText1215" font-family="微软雅黑" text-anchor="middle" font-size="13px" width="67px" fill="#323232" font-weight="400" align="middle" lineHeight="125%" anchor="middle" family="微软雅黑" size="13px" weight="400" font-style="" opacity="1" y="17.375" transform="rotate(0)"><tspan id="SvgjsTspan1216" dy="16" x="50.16666666666667"><tspan id="SvgjsTspan1217" style="text-decoration:;">POD </tspan></tspan><tspan id="SvgjsTspan1218" dy="16" x="50.16666666666667"><tspan id="SvgjsTspan1219" style="text-decoration:;">Queue</tspan></tspan></text></g></g><g id="SvgjsG1220"><path id="SvgjsPath1221" d="M250.5 699.75L249.89999999999998 763.0350000000001" stroke="#323232" stroke-width="2" fill="none" marker-end="url(#SvgjsMarker1222)"></path><rect id="SvgjsRect1224" width="8" height="16" x="246.2" y="723.3925" fill="#ffffff"></rect><text id="SvgjsText1225" font-family="微软雅黑" text-anchor="middle" font-size="13px" width="8px" fill="#ff0000" font-weight="400" align="top" lineHeight="16px" anchor="middle" family="微软雅黑" size="13px" weight="400" font-style="" opacity="1" y="721.7675" transform="rotate(0)"><tspan id="SvgjsTspan1226" dy="16" x="250.2"><tspan id="SvgjsTspan1227" style="text-decoration:;">4</tspan></tspan></text></g><g id="SvgjsG1228" transform="translate(200.5,274.75)"><path id="SvgjsPath1229" d="M 0 0L 100 0L 100 70L 0 70L 0 0ZM 16.666666666666668 0L 16.666666666666668 70M 83.33333333333333 0L 83.33333333333333 70" stroke="rgba(50,50,50,1)" stroke-width="2" fill-opacity="1" fill="#ffffff"></path><g id="SvgjsG1230"><text id="SvgjsText1231" font-family="微软雅黑" text-anchor="middle" font-size="13px" width="67px" fill="#323232" font-weight="400" align="middle" lineHeight="125%" anchor="middle" family="微软雅黑" size="13px" weight="400" font-style="" opacity="1" y="9.375" transform="rotate(0)"><tspan id="SvgjsTspan1232" dy="16" x="50.16666666666667"><tspan id="SvgjsTspan1233" style="text-decoration:;">Action </tspan></tspan><tspan id="SvgjsTspan1234" dy="16" x="50.16666666666667"><tspan id="SvgjsTspan1235" style="text-decoration:;">Pool</tspan></tspan><tspan id="SvgjsTspan1236" dy="16" x="50.16666666666667"><tspan id="SvgjsTspan1237" style="text-decoration:;">(Kafka)</tspan></tspan></text></g></g><g id="SvgjsG1238"><path id="SvgjsPath1239" d="M250.5 344.75L250.5 460.75" stroke="#323232" stroke-width="2" fill="none" marker-end="url(#SvgjsMarker1240)"></path><rect id="SvgjsRect1242" width="74" height="16" x="213.5" y="394.75" fill="#ffffff"></rect><text id="SvgjsText1243" font-family="微软雅黑" text-anchor="middle" font-size="13px" width="74px" fill="#ff0000" font-weight="400" align="top" lineHeight="16px" anchor="middle" family="微软雅黑" size="13px" weight="400" font-style="" opacity="1" y="393.125" transform="rotate(0)"><tspan id="SvgjsTspan1244" dy="16" x="250.5"><tspan id="SvgjsTspan1245" style="text-decoration:;">2. subscribe</tspan></tspan></text></g><g id="SvgjsG1246"><path id="SvgjsPath1247" d="M644 682.8509174311927C 553 678.75 626.9600917431193 640.2511467889908 644 640.2511467889908" stroke="#323232" stroke-width="2" fill="none" marker-end="url(#SvgjsMarker1248)"></path></g><g id="SvgjsG1250" transform="translate(822.5,601.4115087040619)"><path id="SvgjsPath1251" d="M 0 3.542311411992263Q 57.25 -3.542311411992263 114.5 3.542311411992263L 114.5 28.338491295938105L 0 28.338491295938105L 0 3.542311411992263Z" stroke="rgba(50,50,50,1)" stroke-width="2" fill-opacity="1" fill="#99ffcc"></path><g id="SvgjsG1252"><text id="SvgjsText1253" font-family="微软雅黑" text-anchor="middle" font-size="12px" width="95px" fill="#323232" font-weight="400" align="middle" lineHeight="125%" anchor="middle" family="微软雅黑" size="12px" weight="400" font-style="" opacity="1" y="5.169245647969053" transform="rotate(0)"><tspan id="SvgjsTspan1254" dy="15" x="57.5"><tspan id="SvgjsTspan1255" style="text-decoration:;">ClientAction</tspan></tspan></text></g></g><g id="SvgjsG1256"><path id="SvgjsPath1257" d="M822.5 615.580754352031L754 551.2675292940264" stroke-dasharray="3,3" stroke="#323232" stroke-width="2" fill="none" marker-end="url(#SvgjsMarker1258)"></path></g><g id="SvgjsG1260"><path id="SvgjsPath1261" d="M755 640.2511467889908L822.5 615.580754352031" stroke-dasharray="10,5,3,5" stroke="#323232" stroke-width="2" fill="none" marker-end="url(#SvgjsMarker1262)"></path></g><g id="SvgjsG1264" transform="translate(386,221.75)"><path id="SvgjsPath1265" d="M 11.7 0L 71.16666666666667 0C 79.86363636363636 0 79.86363636363636 41 71.16666666666667 41L 11.7 41C -3.9000000000000004 41 -3.9000000000000004 0 11.7 0ZM 71.16666666666667 0C 62.625 0 62.625 41 71.16666666666667 41C 62.625 41 62.625 0 71.16666666666667 0" stroke="rgba(50,50,50,1)" stroke-width="2" fill-opacity="1" fill="#ffffff"></path><g id="SvgjsG1266"><text id="SvgjsText1267" font-family="微软雅黑" text-anchor="middle" font-size="13px" width="63px" fill="#323232" font-weight="400" align="middle" lineHeight="125%" anchor="middle" family="微软雅黑" size="13px" weight="400" font-style="" opacity="1" y="2.875" transform="rotate(0)"><tspan id="SvgjsTspan1268" dy="16" x="31.5"><tspan id="SvgjsTspan1269" style="text-decoration:;">Session </tspan></tspan><tspan id="SvgjsTspan1270" dy="16" x="31.5"><tspan id="SvgjsTspan1271" style="text-decoration:;">Pool</tspan></tspan></text></g></g><g id="SvgjsG1272"><path id="SvgjsPath1273" d="M425 262.75L425 512.25L461 512.25" stroke-dasharray="3,3" stroke="#323232" stroke-width="2" fill="none" marker-end="url(#SvgjsMarker1274)"></path><rect id="SvgjsRect1276" width="47" height="16" x="401.5" y="397.5" fill="#ffffff"></rect><text id="SvgjsText1277" font-family="微软雅黑" text-anchor="middle" font-size="13px" width="47px" fill="#ff0000" font-weight="400" align="top" lineHeight="16px" anchor="middle" family="微软雅黑" size="13px" weight="400" font-style="" opacity="1" y="395.875" transform="rotate(0)"><tspan id="SvgjsTspan1278" dy="16" x="425"><tspan id="SvgjsTspan1279" style="text-decoration:;">9. fetch</tspan></tspan></text></g><g id="SvgjsG1280" transform="translate(300.5,173.75)"><path id="SvgjsPath1281" d="M 10.799999999999999 0L 65.16666666666667 0C 73.86363636363636 0 73.86363636363636 41 65.16666666666667 41L 10.799999999999999 41C -3.6 41 -3.6 0 10.799999999999999 0ZM 65.16666666666667 0C 56.625 0 56.625 41 65.16666666666667 41C 56.625 41 56.625 0 65.16666666666667 0" stroke="rgba(50,50,50,1)" stroke-width="2" fill-opacity="1" fill="#ffffff"></path><g id="SvgjsG1282"><text id="SvgjsText1283" font-family="微软雅黑" text-anchor="middle" font-size="13px" width="58px" fill="#323232" font-weight="400" align="middle" lineHeight="125%" anchor="middle" family="微软雅黑" size="13px" weight="400" font-style="" opacity="1" y="10.875" transform="rotate(0)"><tspan id="SvgjsTspan1284" dy="16" x="29"><tspan id="SvgjsTspan1285" style="text-decoration:;">Site Map</tspan></tspan></text></g></g><g id="SvgjsG1286"><path id="SvgjsPath1287" d="M336.5 214.75L336.5 512.25L461 512.25" stroke-dasharray="3,3" stroke="#323232" stroke-width="2" fill="none" marker-end="url(#SvgjsMarker1288)"></path><rect id="SvgjsRect1290" width="47" height="16" x="313" y="417.75" fill="#ffffff"></rect><text id="SvgjsText1291" font-family="微软雅黑" text-anchor="middle" font-size="13px" width="47px" fill="#ff0000" font-weight="400" align="top" lineHeight="16px" anchor="middle" family="微软雅黑" size="13px" weight="400" font-style="" opacity="1" y="416.125" transform="rotate(0)"><tspan id="SvgjsTspan1292" dy="16" x="336.5"><tspan id="SvgjsTspan1293" style="text-decoration:;">8. fetch</tspan></tspan></text></g><g id="SvgjsG1294"><path id="SvgjsPath1295" d="M699.5 319.75L699.5 194.25L372.5 194.25" stroke-dasharray="3,3" stroke="#323232" stroke-width="2" fill="none" marker-end="url(#SvgjsMarker1296)"></path><rect id="SvgjsRect1298" width="62" height="16" x="567.75" y="186.25" fill="#ffffff"></rect><text id="SvgjsText1299" font-family="微软雅黑" text-anchor="middle" font-size="13px" width="62px" fill="#ff0000" font-weight="400" align="top" lineHeight="16px" anchor="middle" family="微软雅黑" size="13px" weight="400" font-style="" opacity="1" y="184.625" transform="rotate(0)"><tspan id="SvgjsTspan1300" dy="16" x="598.75"><tspan id="SvgjsTspan1301" style="text-decoration:;">12. update</tspan></tspan></text></g><g id="SvgjsG1302" transform="translate(55,646.25)"><path id="SvgjsPath1303" d="M 0 4Q 0 0 4 0L 100 0Q 104 0 104 4L 104 33Q 104 37 100 37L 4 37Q 0 37 0 33Z" stroke="rgba(50,50,50,1)" stroke-width="2" fill-opacity="1" fill="#ffffff"></path><g id="SvgjsG1304"><text id="SvgjsText1305" font-family="微软雅黑" text-anchor="middle" font-size="13px" width="84px" fill="#323232" font-weight="400" align="middle" lineHeight="125%" anchor="middle" family="微软雅黑" size="13px" weight="400" font-style="" opacity="1" y="8.875" transform="rotate(0)"><tspan id="SvgjsTspan1306" dy="16" x="52"><tspan id="SvgjsTspan1307" style="text-decoration:;">Auto scaler</tspan></tspan></text></g></g><g id="SvgjsG1308"><path id="SvgjsPath1309" d="M250.5 344.75L250.5 374.75L25 374.75L25 664.75L55 664.75" stroke-dasharray="8,5" stroke="#323232" stroke-width="2" fill="none" marker-end="url(#SvgjsMarker1310)"></path></g><g id="SvgjsG1312"><path id="SvgjsPath1313" d="M159 664.75L179.75 664.75L179.75 664.75L200.5 664.75" stroke-dasharray="8,5" stroke="#323232" stroke-width="2" fill="none" marker-end="url(#SvgjsMarker1314)"></path></g><g id="SvgjsG1316" transform="translate(645,466.75)"><path id="SvgjsPath1317" d="M 0 0L 109 0L 109 41.03505858805272L 0 41.03505858805272Z" stroke="rgba(50,50,50,1)" stroke-width="2" fill-opacity="1" fill="#99ffcc"></path><g id="SvgjsG1318"><text id="SvgjsText1319" font-family="微软雅黑" text-anchor="middle" font-size="13px" width="89px" fill="#323232" font-weight="400" align="middle" lineHeight="125%" anchor="middle" family="微软雅黑" size="13px" weight="400" font-style="" opacity="1" y="10.89252929402636" transform="rotate(0)"><tspan id="SvgjsTspan1320" dy="16" x="54.5"><tspan id="SvgjsTspan1321" style="text-decoration:;">RecordFactory</tspan></tspan></text></g></g><g id="SvgjsG1322"><path id="SvgjsPath1323" d="M563 512.25L604 512.25L604 551.2675292940264L645 551.2675292940264" stroke="#323232" stroke-width="2" fill="none" marker-end="url(#SvgjsMarker1324)"></path><rect id="SvgjsRect1326" width="13" height="16" x="597.5" y="523.7587646470132" fill="#ffffff"></rect><text id="SvgjsText1327" font-family="微软雅黑" text-anchor="middle" font-size="13px" width="13px" fill="#ff0000" font-weight="400" align="top" lineHeight="16px" anchor="middle" family="微软雅黑" size="13px" weight="400" font-style="" opacity="1" y="522.1337646470132" transform="rotate(0)"><tspan id="SvgjsTspan1328" dy="16" x="604"><tspan id="SvgjsTspan1329" style="text-decoration:;">10</tspan></tspan></text></g><g id="SvgjsG1330" transform="translate(118,159.25)"><path id="SvgjsPath1331" d="M 0 4Q 0 0 4 0L 96 0Q 100 0 100 4L 100 66Q 100 70 96 70L 4 70Q 0 70 0 66Z" stroke="rgba(50,50,50,1)" stroke-width="2" fill-opacity="1" fill="#ffffff"></path><g id="SvgjsG1332"><text id="SvgjsText1333" font-family="微软雅黑" text-anchor="middle" font-size="13px" width="80px" fill="#323232" font-weight="400" align="middle" lineHeight="125%" anchor="middle" family="微软雅黑" size="13px" weight="400" font-style="" opacity="1" y="17.375" transform="rotate(0)"><tspan id="SvgjsTspan1334" dy="16" x="50"><tspan id="SvgjsTspan1335" style="text-decoration:;">Site Action </tspan></tspan><tspan id="SvgjsTspan1336" dy="16" x="50"><tspan id="SvgjsTspan1337" style="text-decoration:;">Scheduler</tspan></tspan></text></g></g><g id="SvgjsG1338"><path id="SvgjsPath1339" d="M300.5 194.25L259.25 194.25L259.25 194.25L218 194.25" stroke="#323232" stroke-width="2" fill="none" marker-end="url(#SvgjsMarker1340)"></path></g><g id="SvgjsG1342"><path id="SvgjsPath1343" d="M168 229.25L168 252L250.5 252L250.5 274.75" stroke="#323232" stroke-width="2" fill="none" marker-end="url(#SvgjsMarker1344)"></path><rect id="SvgjsRect1346" width="5" height="16" x="206.75" y="244" fill="#ffffff"></rect><text id="SvgjsText1347" font-family="微软雅黑" text-anchor="middle" font-size="13px" width="5px" fill="#ff0000" font-weight="700" align="top" lineHeight="16px" anchor="middle" family="微软雅黑" size="13px" weight="700" font-style="" opacity="1" y="242.375" transform="rotate(0)"><tspan id="SvgjsTspan1348" dy="16" x="209.25"><tspan id="SvgjsTspan1349" style="text-decoration:;">1</tspan></tspan></text></g><g id="SvgjsG1350" transform="translate(1206,556.75)"><path id="SvgjsPath1351" d="M 0 0L 158 0L 174 16L 174 229L 0 229L 0 0Z" stroke="none" fill-opacity="1" fill="#ffffaa"></path><path id="SvgjsPath1352" d="M 158 0L 158 16L 174 16Z" stroke="none" fill-opacity="1" fill="#cdcdcd"></path><path id="SvgjsPath1353" d="M 0 0L 158 0L 174 16L 174 229L 0 229L 0 0Z" stroke="none" fill="none"></path><g id="SvgjsG1354"><text id="SvgjsText1355" font-family="微软雅黑" text-anchor="start" font-size="13px" width="154px" fill="#323232" font-weight="400" align="middle" lineHeight="125%" anchor="start" family="微软雅黑" size="13px" weight="400" font-style="" opacity="1" y="-23.125" transform="rotate(0)"><tspan id="SvgjsTspan1356" dy="16" x="10"><tspan id="SvgjsTspan1357" style="text-decoration:;">Factory:</tspan></tspan><tspan id="SvgjsTspan1358" dy="16" x="10"><tspan id="SvgjsTspan1359" style="text-decoration:;font-size: inherit;">have different </tspan></tspan><tspan id="SvgjsTspan1360" dy="16" x="10"><tspan id="SvgjsTspan1361" style="text-decoration:;font-size: inherit;">implementations, this </tspan></tspan><tspan id="SvgjsTspan1362" dy="16" x="10"><tspan id="SvgjsTspan1363" style="text-decoration:;font-size: inherit;">depends on our further </tspan></tspan><tspan id="SvgjsTspan1364" dy="16" x="10"><tspan id="SvgjsTspan1365" style="text-decoration:;font-size: inherit;">strategies to do which </tspan></tspan><tspan id="SvgjsTspan1366" dy="16" x="10"><tspan id="SvgjsTspan1367" style="text-decoration:;font-size: inherit;">kind of actions, or do </tspan></tspan><tspan id="SvgjsTspan1368" dy="16" x="10"><tspan id="SvgjsTspan1369" style="text-decoration:;font-size: inherit;">which kind of result </tspan></tspan><tspan id="SvgjsTspan1370" dy="16" x="10"><tspan id="SvgjsTspan1371" style="text-decoration:;font-size: inherit;">recording;</tspan></tspan><tspan id="SvgjsTspan1372" dy="16" x="10"><tspan id="SvgjsTspan1373" style="text-decoration:;"> </tspan></tspan><tspan id="SvgjsTspan1374" dy="16" x="10"><tspan id="SvgjsTspan1375" style="text-decoration:;">Engine:</tspan></tspan><tspan id="SvgjsTspan1376" dy="16" x="10"><tspan id="SvgjsTspan1377" style="text-decoration:;">Engine responsible for </tspan></tspan><tspan id="SvgjsTspan1378" dy="16" x="10"><tspan id="SvgjsTspan1379" style="text-decoration:;">consuming actions from </tspan></tspan><tspan id="SvgjsTspan1380" dy="16" x="10"><tspan id="SvgjsTspan1381" style="text-decoration:;">action pool, request pod </tspan></tspan><tspan id="SvgjsTspan1382" dy="16" x="10"><tspan id="SvgjsTspan1383" style="text-decoration:;">which contains webdriver </tspan></tspan><tspan id="SvgjsTspan1384" dy="16" x="10"><tspan id="SvgjsTspan1385" style="text-decoration:;">crawler.</tspan></tspan><tspan id="SvgjsTspan1386" dy="16" x="10"><tspan id="SvgjsTspan1387" style="text-decoration:;"> </tspan></tspan><tspan id="SvgjsTspan1388" dy="16" x="10"><tspan id="SvgjsTspan1389" style="text-decoration:;"> </tspan></tspan></text></g></g><g id="SvgjsG1390"><path id="SvgjsPath1391" d="M613 348.25L538.5 348.25L538.5 242.25L464 242.25" stroke-dasharray="3,3" stroke="#323232" stroke-width="2" fill="none" marker-end="url(#SvgjsMarker1392)"></path><rect id="SvgjsRect1394" width="24" height="16" x="526.5" y="287.25" fill="#ffffff"></rect><text id="SvgjsText1395" font-family="微软雅黑" text-anchor="middle" font-size="13px" width="24px" fill="#323232" font-weight="400" align="top" lineHeight="16px" anchor="middle" family="微软雅黑" size="13px" weight="400" font-style="" opacity="1" y="285.625" transform="rotate(0)"><tspan id="SvgjsTspan1396" dy="16" x="538.5"><tspan id="SvgjsTspan1397" style="text-decoration:;">new</tspan></tspan></text></g></svg>